<?xml version="1.0" encoding="UTF-8"?>
<svg id="Lag_2" data-name="Lag 2" xmlns="http://www.w3.org/2000/svg" viewBox="0 0 1905.94 1164">
  <defs>
    <style>
      .cls-1 {
        fill: #0ab900;
      }

      .cls-1, .cls-2, .cls-3, .cls-4, .cls-5, .cls-6, .cls-7, .cls-8, .cls-9, .cls-10, .cls-11, .cls-12, .cls-13, .cls-14, .cls-15, .cls-16 {
        stroke-width: 0px;
      }

      .cls-17, .cls-18, .cls-19, .cls-20, .cls-21, .cls-22, .cls-23, .cls-24, .cls-25, .cls-26, .cls-27, .cls-28, .cls-29, .cls-30, .cls-31, .cls-32, .cls-33, .cls-34, .cls-35, .cls-36, .cls-37 {
        stroke-miterlimit: 10;
      }

      .cls-17, .cls-7, .cls-32 {
        fill: #fff;
      }

      .cls-17, .cls-37 {
        stroke: #093;
      }

      .cls-18 {
        fill: #948f8f;
      }

      .cls-18, .cls-19, .cls-21, .cls-23, .cls-24, .cls-25, .cls-27, .cls-28, .cls-30, .cls-31, .cls-32, .cls-33, .cls-35 {
        stroke: #000;
      }

      .cls-19 {
        fill: #e76f00;
      }

      .cls-20 {
        fill: #d00000;
        stroke: #8b0003;
      }

      .cls-21 {
        fill: #a20004;
      }

      .cls-2 {
        fill: #a21f00;
      }

      .cls-22 {
        fill: #124600;
        stroke: #00260d;
      }

      .cls-3, .cls-24 {
        fill: #feffd0;
      }

      .cls-25 {
        fill: #999;
      }

      .cls-5 {
        fill: #ffd0d0;
      }

      .cls-26 {
        fill: #ff5c9c;
        stroke: #e36697;
      }

      .cls-6 {
        fill: #e70000;
      }

      .cls-27 {
        fill: #666;
      }

      .cls-28 {
        fill: #333;
      }

      .cls-8, .cls-34 {
        fill: #f9ff7d;
      }

      .cls-29, .cls-34 {
        stroke: #004d1a;
      }

      .cls-29, .cls-37 {
        fill: #238b00;
      }

      .cls-30 {
        fill: #1f1f26;
      }

      .cls-9 {
        fill: #6da200;
      }

      .cls-10 {
        fill: #ff5cf8;
      }

      .cls-31 {
        fill: #ca0004;
      }

      .cls-11 {
        fill: #ff5c5c;
      }

      .cls-12 {
        fill: #2400a2;
      }

      .cls-33 {
        fill: #ffc273;
      }

      .cls-13 {
        fill: #674739;
      }

      .cls-14 {
        fill: #5c0700;
      }

      .cls-35 {
        fill: #94938f;
      }

      .cls-36 {
        fill: #b90005;
        stroke: #680029;
      }

      .cls-15 {
        fill: #f3c;
      }

      .cls-16 {
        fill: #d00005;
      }
    </style>
  </defs>
  <g id="bakgrund">
    <rect class="cls-8" width="1898.77" height="1164"/>
    <path class="cls-23" d="m1525.41,140.22c23.34.66,46.48,33.94,51.84,62.43,8.78,46.66-35.98,89.77-77.17,85.04-8.86-1.02-15.49-4.55-20.32-9.81-19.94-21.73-1.51-81.59,17.26-115.71,3.42-6.23,6.58-11.06,8.73-14.2,5.23-4.49,11.83-7.96,19.66-7.74Z"/>
    <path class="cls-23" d="m1686.13,176.84c23.34.66,46.48,33.94,51.84,62.43,8.78,46.66-35.98,89.77-77.17,85.04-8.86-1.02-15.49-4.55-20.32-9.81-19.94-21.73-1.51-81.59,17.26-115.71,3.42-6.23,6.58-11.06,8.73-14.2,5.23-4.49,11.83-7.96,19.66-7.74Z"/>
    <path class="cls-23" d="m1272.66,62.47c10.25-8.28,30.76-4.39,42.1,4.21,18.58,14.09,12.99,46.42-6.23,59.7-4.13,2.86-8.11,3.97-11.85,3.78-15.47-.77-26.53-29.7-29.27-49.19-.5-3.56-.68-6.5-.75-8.45.83-3.57,2.56-7.27,6-10.05Z"/>
    <path class="cls-23" d="m1292.53,107.43c16.09-.98,35.25,32.31,41.75,61.84,10.64,48.37-15.82,96.85-44.56,94.83-6.18-.44-11.08-3.67-14.92-8.85-15.83-21.39-9.1-85.57.41-122.74,1.73-6.78,3.42-12.09,4.59-15.54,3.15-5.09,7.33-9.21,12.73-9.54Z"/>
    <path class="cls-23" d="m826.45,121.79c24.08,5.2,41.89,42.34,42.17,71.32.46,47.46-53.93,81.01-95.75,68.34-8.99-2.73-15.22-7.48-19.25-13.58-16.64-25.19,13.55-80.3,39.33-110.09,4.7-5.44,8.87-9.56,11.68-12.23,6.26-3.38,13.74-5.5,21.82-3.76Z"/>
    <path class="cls-23" d="m879.19,130.89c-14.9.95-30.71,34.84-35.03,63.67-7.08,47.22,20.1,90.21,46.5,84.92,5.68-1.14,10.02-4.78,13.27-10.15,13.4-22.18,3.55-82.4-7.34-116.62-1.99-6.24-3.84-11.09-5.11-14.24-3.19-4.47-7.29-7.9-12.29-7.58Z"/>
    <path class="cls-23" d="m895.06,125.17c-1.56,8.9-7.56,15.45-15.3,15.3-10.61-.2-27.26-13.05-30.26-31.26-.54-4.13-.94-12.55,4.46-20.3,3.47-4.98,12.71-14.11,21.07-12.1,9.97,2.4,19,21.87,20.02,48.35Z"/>
    <path class="cls-23" d="m794.98,133.71c6.53,11.41,18.26,18.03,29.24,15,15.06-4.15,32.61-27.53,28.1-53.13-1.22-5.76-4.72-17.23-16.18-25.69-7.36-5.44-24.96-14.34-35.93-8.58-13.08,6.87-16.57,36.38-5.24,72.39Z"/>
    <path class="cls-23" d="m921.58,135.59c-27.48,7.6-43.68,46.34-40.42,75.19,5.34,47.26,73.03,75.14,120.3,58.32,10.17-3.62,16.85-8.97,20.8-15.45,16.32-26.73-25.78-78.5-59.57-105.54-6.17-4.93-11.54-8.62-15.16-10.98-7.73-2.73-16.73-4.09-25.95-1.54Z"/>
    <path class="cls-23" d="m990.81,124.99c-.28,13.14-8.63,24.54-21.65,27.11-17.85,3.52-49.13-8.67-58.94-33.32-1.99-5.64-4.86-17.39,2.16-30.28,4.52-8.29,17.61-24.49,32.16-24.65,17.35-.19,37.6,24.09,46.26,61.14Z"/>
    <path class="cls-23" d="m1061.76,117.54c28.92,5.21,50.31,42.43,50.65,71.47.55,47.57-64.77,81.19-114.99,68.49-10.8-2.73-18.28-7.49-23.12-13.61-19.99-25.24,16.28-80.47,47.23-110.33,5.65-5.45,10.65-9.59,14.03-12.25,7.51-3.39,16.5-5.51,26.2-3.77Z"/>
    <path class="cls-23" d="m1003.6,114.3c1.95,13.07,11.89,23.72,25.46,25.16,18.61,1.97,48.88-12.87,55.74-38.29,1.31-5.8,2.74-17.76-6.04-30-5.64-7.87-21.02-22.9-35.84-21.8-17.67,1.31-35.2,27.25-39.32,64.93Z"/>
    <path class="cls-23" d="m1119.39,117.33c-14.37.88-29.6,32.1-33.77,58.66-6.83,43.51,19.36,83.1,44.82,78.22,5.47-1.05,9.66-4.41,12.79-9.36,12.92-20.44,3.43-75.92-7.06-107.44-1.91-5.75-3.7-10.21-4.93-13.11-3.08-4.11-7.03-7.27-11.85-6.98Z"/>
    <path class="cls-23" d="m1205.35,137.44c-21.98,1.1-45.3,39.94-51.68,72.97-10.46,54.11,29.58,103.35,68.52,97.27,8.37-1.31,14.78-5.48,19.57-11.64,19.77-25.42,5.27-94.42-10.76-133.62-2.92-7.15-5.66-12.7-7.53-16.31-4.71-5.12-10.75-9.04-18.12-8.67Z"/>
    <path class="cls-23" d="m1235.25,129.42c-1.94,13.44-9.39,23.33-19,23.11-13.18-.31-33.83-19.71-37.56-47.2-.67-6.24-1.16-18.94,5.54-30.65,4.31-7.52,15.78-21.3,26.16-18.26,12.38,3.62,23.59,33.02,24.86,73.01Z"/>
    <path class="cls-23" d="m1147.63,112.17c-1.71,10.81-8.32,18.76-16.83,18.58-11.67-.25-29.98-15.85-33.28-37.95-.6-5.02-1.03-15.23,4.91-24.64,3.82-6.05,13.98-17.13,23.17-14.68,10.96,2.91,20.9,26.55,22.02,58.7Z"/>
    <path class="cls-30" d="m988.28,222.59c-16.22,1.09-33.41,39.93-38.12,72.96-7.71,54.11,21.86,103.35,50.59,97.28,6.18-1.31,10.9-5.48,14.44-11.64,14.58-25.42,3.87-94.42-7.97-133.62-2.16-7.15-4.18-12.7-5.56-16.31-3.47-5.12-7.93-9.04-13.37-8.68Z"/>
    <path class="cls-30" d="m1008.81,204.02c-1.94,13.44-9.39,23.33-19,23.11-13.18-.31-33.83-19.71-37.56-47.2-.67-6.24-1.16-18.94,5.54-30.65,4.31-7.52,15.78-21.3,26.16-18.26,12.38,3.62,23.59,33.02,24.86,73.01Z"/>
    <path class="cls-30" d="m1130.57,213.7c-16.22,1.09-33.41,39.93-38.12,72.96-7.71,54.11,21.86,103.35,50.59,97.28,6.18-1.31,10.9-5.48,14.44-11.64,14.58-25.42,3.87-94.42-7.97-133.62-2.16-7.15-4.18-12.7-5.56-16.31-3.47-5.12-7.93-9.04-13.37-8.68Z"/>
    <path class="cls-30" d="m1152.78,195.14c-1.94,13.44-9.39,23.33-19,23.11-13.18-.31-33.83-19.71-37.56-47.2-.67-6.24-1.16-18.94,5.54-30.65,4.31-7.52,15.78-21.3,26.16-18.26,12.38,3.62,23.59,33.02,24.86,73.01Z"/>
    <path class="cls-28" d="m841.34,251.65c26.19,5.56,45.56,45.27,45.87,76.25.5,50.75-58.66,86.62-104.14,73.07-9.78-2.91-16.55-8-20.94-14.52-18.1-26.93,14.74-85.85,42.78-117.71,5.11-5.81,9.65-10.23,12.7-13.07,6.8-3.61,14.94-5.88,23.73-4.02Z"/>
    <path class="cls-28" d="m792.99,255.08c1.77,13.95,10.77,25.31,23.06,26.84,16.85,2.1,44.27-13.73,50.48-40.85,1.19-6.19,2.48-18.94-5.47-32.01-5.11-8.4-19.04-24.43-32.46-23.26-16,1.39-31.88,29.07-35.61,69.27Z"/>
    <path class="cls-28" d="m914.91,262.39c-25.48,5.56-44.34,45.27-44.64,76.25-.49,50.75,57.08,86.62,101.34,73.07,9.52-2.91,16.11-8,20.37-14.52,17.61-26.93-14.35-85.85-41.63-117.71-4.98-5.81-9.39-10.23-12.36-13.07-6.62-3.61-14.54-5.88-23.09-4.02Z"/>
    <path class="cls-28" d="m969.06,254.66c-1.72,13.95-10.48,25.31-22.44,26.84-16.4,2.1-43.08-13.73-49.12-40.85-1.16-6.19-2.42-18.94,5.32-32.01,4.97-8.4,18.53-24.43,31.59-23.26,15.57,1.39,31.02,29.07,34.65,69.27Z"/>
    <path class="cls-28" d="m1044.44,278.69c-28.51,6.04-49.61,49.26-49.94,82.97-.54,55.22,63.87,94.25,113.39,79.5,10.65-3.17,18.02-8.7,22.8-15.8,19.71-29.3-16.05-93.41-46.58-128.08-5.57-6.32-10.5-11.13-13.83-14.22-7.41-3.93-16.27-6.4-25.84-4.37Z"/>
    <path class="cls-28" d="m1088.09,271.92c-1.92,15.17-11.73,27.54-25.11,29.21-18.35,2.29-48.2-14.94-54.96-44.45-1.29-6.73-2.71-20.61,5.95-34.82,5.57-9.14,20.73-26.58,35.34-25.31,17.43,1.52,34.71,31.63,38.77,75.37Z"/>
    <path class="cls-30" d="m1185.9,192.66c-16.22,1.09-33.41,39.93-38.12,72.96-7.71,54.11,21.86,103.35,50.59,97.28,6.18-1.31,10.9-5.48,14.44-11.64,14.58-25.42,3.87-94.42-7.97-133.62-2.16-7.15-4.18-12.7-5.56-16.31-3.47-5.12-7.93-9.04-13.37-8.68Z"/>
    <path class="cls-30" d="m1206.43,174.09c-1.94,13.44-9.39,23.33-19,23.11-13.18-.31-33.83-19.71-37.56-47.2-.67-6.24-1.16-18.94,5.54-30.65,4.31-7.52,15.78-21.3,26.16-18.26,12.38,3.62,23.59,33.02,24.86,73.01Z"/>
    <path class="cls-28" d="m1206.94,294.46c-25.82,5.56-44.93,45.27-45.23,76.25-.49,50.75,57.84,86.62,102.68,73.07,9.64-2.91,16.32-8,20.64-14.52,17.85-26.93-14.54-85.85-42.18-117.71-5.04-5.81-9.51-10.23-12.53-13.07-6.71-3.61-14.73-5.88-23.4-4.02Z"/>
    <path class="cls-28" d="m1183.07,283.23c.33,13.99,6.95,26.14,17.13,28.88,13.97,3.76,38.28-9.2,45.73-35.44,1.51-6.01,3.65-18.51-1.95-32.24-3.6-8.82-13.96-26.08-25.32-26.26-13.54-.21-29.15,25.62-35.59,65.06Z"/>
    <path class="cls-35" d="m1115.26,312.17c-21.98,1.1-45.3,39.94-51.68,72.97-10.46,54.11,29.58,103.35,68.52,97.27,8.37-1.31,14.78-5.48,19.57-11.64,19.77-25.42,5.27-94.42-10.76-133.62-2.92-7.15-5.66-12.7-7.53-16.31-4.71-5.12-10.75-9.04-18.12-8.67Z"/>
    <path class="cls-18" d="m1140.2,313.14c-1.94,13.44-9.39,23.33-19,23.11-13.18-.31-33.83-19.71-37.56-47.2-.67-6.24-1.16-18.94,5.54-30.65,4.31-7.52,15.78-21.3,26.16-18.26,12.38,3.62,23.59,33.02,24.86,73.01Z"/>
    <path class="cls-30" d="m1284.1,199.21c-16.22,1.09-33.41,39.93-38.12,72.96-7.71,54.11,21.86,103.35,50.59,97.28,6.18-1.31,10.9-5.48,14.44-11.64,14.58-25.42,3.87-94.42-7.97-133.62-2.16-7.15-4.18-12.7-5.56-16.31-3.47-5.12-7.93-9.04-13.37-8.68Z"/>
    <path class="cls-30" d="m1310.21,182.04c-1.94,13.44-9.39,23.33-19,23.11-13.18-.31-33.83-19.71-37.56-47.2-.67-6.24-1.16-18.94,5.54-30.65,4.31-7.52,15.78-21.3,26.16-18.26,12.38,3.62,23.59,33.02,24.86,73.01Z"/>
    <path class="cls-35" d="m996.24,312.17c-21.98,1.1-45.3,39.94-51.68,72.97-10.46,54.11,29.58,103.35,68.52,97.27,8.37-1.31,14.78-5.48,19.57-11.64,19.77-25.42,5.27-94.42-10.76-133.62-2.92-7.15-5.66-12.7-7.53-16.31-4.71-5.12-10.75-9.04-18.12-8.67Z"/>
    <path class="cls-18" d="m1008.71,301.56c-1.94,13.44-9.39,23.33-19,23.11-13.18-.31-33.83-19.71-37.56-47.2-.67-6.24-1.16-18.94,5.54-30.65,4.31-7.52,15.78-21.3,26.16-18.26,12.38,3.62,23.59,33.02,24.86,73.01Z"/>
    <path class="cls-23" d="m1661.74,428.06c-21.28,4.71-37.03,38.37-37.28,64.63-.41,43.01,47.67,73.42,84.64,61.93,7.95-2.47,13.45-6.78,17.01-12.31,14.71-22.83-11.98-72.77-34.76-99.77-4.16-4.93-7.84-8.67-10.32-11.08-5.53-3.06-12.14-4.99-19.28-3.41Z"/>
    <path class="cls-23" d="m1705.57,423.87c-1.43,11.82-8.75,21.45-18.74,22.75-13.7,1.78-35.98-11.64-41.03-34.62-.97-5.24-2.02-16.06,4.44-27.13,4.15-7.12,15.47-20.7,26.38-19.71,13.01,1.18,25.91,24.64,28.94,58.71Z"/>
    <path class="cls-23" d="m1612.99,405.17c24.29,6.88,38.61,41.99,35.73,68.14-4.72,42.83-64.55,68.1-106.33,52.85-8.99-3.28-14.89-8.13-18.39-14-14.42-24.23,22.78-71.14,52.66-95.64,5.45-4.47,10.2-7.81,13.4-9.95,6.83-2.48,14.79-3.7,22.94-1.39Z"/>
    <path class="cls-23" d="m1562.3,396.48c.25,11.91,7.63,22.24,19.14,24.57,15.78,3.19,43.43-7.86,52.1-30.2,1.76-5.12,4.3-15.76-1.91-27.44-3.99-7.51-15.57-22.19-28.43-22.33-15.33-.17-33.23,21.83-40.89,55.41Z"/>
    <path class="cls-23" d="m1617.02,222.34c-29.2,7.24-52.07,52.55-53.52,87.33-2.36,56.97,61.88,94.94,112.73,77.99,10.94-3.65,18.62-9.61,23.7-17.1,21.01-30.92-13.27-95.77-43.17-130.44-5.46-6.33-10.32-11.1-13.6-14.18-7.41-3.79-16.34-6.03-26.14-3.6Z"/>
    <path class="cls-23" d="m1568.49,127.19c5.31-12.03,16.14-19.85,27.11-18,15.05,2.53,34.28,23.91,32.23,49.82-.66,5.85-3.02,17.62-13.41,27.24-6.68,6.18-23,16.89-34.21,12.32-13.37-5.44-19.46-34.4-11.72-71.38Z"/>
    <path class="cls-23" d="m1460.91,140.14c11.77.88,24.25,32.1,27.66,58.66,5.59,43.51-15.86,83.1-36.71,78.22-4.48-1.05-7.91-4.41-10.48-9.36-10.58-20.44-2.81-75.92,5.78-107.44,1.57-5.75,3.03-10.21,4.04-13.11,2.52-4.11,5.76-7.27,9.7-6.98Z"/>
    <path class="cls-23" d="m1350.47,129.26c18,1.1,37.1,39.94,42.33,72.97,8.57,54.11-24.23,103.35-56.12,97.27-6.86-1.31-12.1-5.48-16.03-11.64-16.19-25.42-4.32-94.42,8.81-133.62,2.4-7.15,4.64-12.7,6.17-16.31,3.86-5.12,8.8-9.04,14.84-8.67Z"/>
    <path class="cls-23" d="m1326.43,136.36c1.59,13.44,7.69,23.33,15.56,23.11,10.79-.31,27.71-19.71,30.76-47.2.55-6.24.95-18.94-4.54-30.65-3.53-7.52-12.92-21.3-21.42-18.26-10.14,3.62-19.32,33.02-20.36,73.01Z"/>
    <path class="cls-23" d="m1432.83,139.98c1.69,10.81,8.2,18.76,16.59,18.58,11.51-.25,29.55-15.85,32.8-37.95.59-5.02,1.02-15.23-4.84-24.64-3.76-6.05-13.78-17.13-22.84-14.68-10.81,2.91-20.6,26.55-21.71,58.7Z"/>
    <path class="cls-28" d="m1680.11,273.06c14.33.99,29.54,36.19,33.7,66.12,6.81,49.04-19.32,93.66-44.72,88.16-5.46-1.18-9.64-4.97-12.76-10.55-12.89-23.04-3.42-85.57,7.05-121.09,1.91-6.48,3.7-11.51,4.92-14.78,3.07-4.64,7.01-8.2,11.82-7.86Z"/>
    <path class="cls-28" d="m1660.75,273.34c1.71,12.18,8.3,21.14,16.79,20.94,11.65-.28,29.91-17.86,33.2-42.78.6-5.65,1.03-17.17-4.9-27.78-3.81-6.82-13.95-19.3-23.12-16.55-10.94,3.28-20.85,29.92-21.97,66.16Z"/>
    <path class="cls-30" d="m1460.67,236.51c13.28,1.09,27.37,39.93,31.22,72.96,6.31,54.11-17.9,103.35-41.44,97.28-5.06-1.31-8.93-5.48-11.82-11.64-11.94-25.42-3.17-94.42,6.53-133.62,1.77-7.15,3.42-12.7,4.56-16.31,2.85-5.12,6.5-9.04,10.95-8.68Z"/>
    <path class="cls-30" d="m1447.44,217.95c1.59,13.44,7.69,23.33,15.56,23.11,10.79-.31,27.71-19.71,30.76-47.2.55-6.24.95-18.94-4.54-30.65-3.53-7.52-12.92-21.3-21.42-18.26-10.14,3.62-19.32,33.02-20.36,73.01Z"/>
    <path class="cls-23" d="m1533.6,243.11c-23.15,5.03-40.28,41.02-40.55,69.1-.44,45.99,51.85,78.5,92.05,66.22,8.65-2.64,14.63-7.25,18.51-13.16,16-24.41-13.03-77.8-37.81-106.67-4.52-5.27-8.53-9.27-11.23-11.85-6.01-3.28-13.21-5.33-20.98-3.64Z"/>
    <path class="cls-23" d="m1708.45,537.47c-1.56,12.64-9.52,22.94-20.38,24.33-14.9,1.91-39.13-12.44-44.62-37.02-1.05-5.61-2.2-17.17,4.83-29,4.52-7.61,16.83-22.14,28.69-21.08,14.15,1.26,28.18,26.34,31.48,62.77Z"/>
    <path class="cls-23" d="m1765.04,331.17c22.53,5.03,39.19,41.02,39.46,69.1.43,45.99-50.46,78.5-89.58,66.22-8.41-2.64-14.24-7.25-18.01-13.16-15.57-24.41,12.68-77.8,36.79-106.67,4.4-5.27,8.3-9.27,10.93-11.85,5.85-3.28,12.85-5.33,20.41-3.64Z"/>
    <path class="cls-23" d="m1719.08,318.38c1.52,12.64,9.26,22.94,19.83,24.33,14.5,1.91,38.08-12.44,43.42-37.02,1.02-5.61,2.14-17.17-4.7-29-4.4-7.61-16.38-22.14-27.92-21.08-13.77,1.26-27.42,26.34-30.63,62.77Z"/>
    <path class="cls-23" d="m1403.1,116.54c23.35,6.04,40.64,49.26,40.91,82.97.45,55.22-52.32,94.25-92.88,79.5-8.72-3.17-14.76-8.7-18.67-15.8-16.14-29.3,13.15-93.41,38.15-128.08,4.56-6.32,8.6-11.13,11.33-14.22,6.07-3.93,13.33-6.4,21.16-4.37Z"/>
    <path class="cls-23" d="m1497.35,138.59c4.47,10.6,12.73,17.67,20.61,16.32,10.81-1.85,23.71-20,20.92-42.62-.78-5.11-3.08-15.42-11.12-24.04-5.16-5.54-17.56-15.26-25.48-11.55-9.44,4.42-12.41,29.49-4.93,61.89Z"/>
    <path class="cls-30" d="m1394.54,188.47c13.28,1.09,27.37,39.93,31.22,72.96,6.31,54.11-17.9,103.35-41.44,97.28-5.06-1.31-8.93-5.48-11.82-11.64-11.94-25.42-3.17-94.42,6.53-133.62,1.77-7.15,3.42-12.7,4.56-16.31,2.85-5.12,6.5-9.04,10.95-8.68Z"/>
    <path class="cls-30" d="m1385.66,209.9c1.59,13.44,7.69,23.33,15.56,23.11,10.79-.31,27.71-19.71,30.76-47.2.55-6.24.95-18.94-4.54-30.65-3.53-7.52-12.92-21.3-21.42-18.26-10.14,3.62-19.32,33.02-20.36,73.01Z"/>
    <path class="cls-28" d="m1416.62,325.64c21.15,5.56,36.8,45.27,37.04,76.25.4,50.75-47.37,86.62-84.1,73.07-7.9-2.91-13.37-8-16.91-14.52-14.62-26.93,11.91-85.85,34.54-117.71,4.13-5.81,7.79-10.23,10.26-13.07,5.5-3.61,12.07-5.88,19.16-4.02Z"/>
    <path class="cls-28" d="m1435.03,306.04c-.27,13.99-5.69,26.14-14.03,28.88-11.44,3.76-31.36-9.2-37.46-35.44-1.24-6.01-2.99-18.51,1.59-32.24,2.95-8.82,11.43-26.08,20.74-26.26,11.09-.21,23.87,25.62,29.16,65.06Z"/>
    <path class="cls-35" d="m1513.13,325.21c18,1.1,37.1,39.94,42.33,72.97,8.57,54.11-24.23,103.35-56.12,97.27-6.86-1.31-12.1-5.48-16.03-11.64-16.19-25.42-4.32-94.42,8.81-133.62,2.4-7.15,4.64-12.7,6.17-16.31,3.86-5.12,8.8-9.04,14.84-8.67Z"/>
    <path class="cls-18" d="m1496.88,312.24c1.59,13.44,7.69,23.33,15.56,23.11,10.79-.31,27.71-19.71,30.76-47.2.55-6.24.95-18.94-4.54-30.65-3.53-7.52-12.92-21.3-21.42-18.26-10.14,3.62-19.32,33.02-20.36,73.01Z"/>
    <path class="cls-30" d="m1338.57,222.02c13.28,1.09,27.37,39.93,31.22,72.96,6.31,54.11-17.9,103.35-41.44,97.28-5.06-1.31-8.93-5.48-11.82-11.64-11.94-25.42-3.17-94.42,6.53-133.62,1.77-7.15,3.42-12.7,4.56-16.31,2.85-5.12,6.5-9.04,10.95-8.68Z"/>
    <path class="cls-30" d="m1321.75,203.46c1.59,13.44,7.69,23.33,15.56,23.11,10.79-.31,27.71-19.71,30.76-47.2.55-6.24.95-18.94-4.54-30.65-3.53-7.52-12.92-21.3-21.42-18.26-10.14,3.62-19.32,33.02-20.36,73.01Z"/>
    <path class="cls-35" d="m1306.34,252.7c18,1.1,37.1,39.94,42.33,72.97,8.57,54.11-24.23,103.35-56.12,97.27-6.86-1.31-12.1-5.48-16.03-11.64-16.19-25.42-4.32-94.42,8.81-133.62,2.4-7.15,4.64-12.7,6.17-16.31,3.86-5.12,8.8-9.04,14.84-8.67Z"/>
    <path class="cls-18" d="m1272.19,252.27c1.59,13.44,7.69,23.33,15.56,23.11,10.79-.31,27.71-19.71,30.76-47.2.55-6.24.95-18.94-4.54-30.65-3.53-7.52-12.92-21.3-21.42-18.26-10.14,3.62-19.32,33.02-20.36,73.01Z"/>
    <path class="cls-35" d="m1682.81,400.28c19.42,1,40.04,36.19,45.68,66.13,9.25,49.04-26.15,93.66-60.57,88.15-7.4-1.18-13.06-4.97-17.3-10.55-17.47-23.04-4.66-85.57,9.51-121.09,2.59-6.48,5-11.51,6.66-14.78,4.16-4.64,9.5-8.19,16.01-7.86Z"/>
    <path class="cls-18" d="m1679.11,373.21c1.71,12.18,8.3,21.14,16.79,20.94,11.65-.28,29.91-17.86,33.2-42.78.6-5.65,1.03-17.17-4.9-27.78-3.81-6.82-13.95-19.3-23.12-16.55-10.94,3.28-20.85,29.92-21.97,66.16Z"/>
    <path class="cls-23" d="m477.05,156.61c16.24,5.2,28.25,42.34,28.44,71.32.31,47.46-36.37,81.01-64.56,68.34-6.06-2.73-10.26-7.48-12.98-13.58-11.22-25.19,9.14-80.3,26.52-110.09,3.17-5.44,5.98-9.56,7.88-12.23,4.22-3.38,9.26-5.5,14.71-3.76Z"/>
    <path class="cls-23" d="m457.26,153.52c1.09,13.04,6.68,23.67,14.29,25.11,10.45,1.97,27.45-12.84,31.3-38.2.74-5.79,1.54-17.72-3.39-29.93-3.17-7.85-11.8-22.85-20.12-21.75-9.92,1.3-19.76,27.19-22.08,64.78Z"/>
    <path class="cls-23" d="m528.02,124.38c-18.53,7.6-29.46,46.34-27.26,75.19,3.6,47.26,49.24,75.14,81.12,58.32,6.85-3.62,11.36-8.97,14.03-15.45,11-26.73-17.38-78.5-40.17-105.54-4.16-4.93-7.78-8.62-10.22-10.98-5.21-2.73-11.28-4.09-17.5-1.54Z"/>
    <path class="cls-23" d="m566.68,114.79c-.19,13.14-5.82,24.54-14.6,27.11-12.04,3.52-33.13-8.67-39.74-33.32-1.34-5.64-3.28-17.39,1.46-30.28,3.05-8.29,11.88-24.49,21.69-24.65,11.7-.19,25.35,24.09,31.2,61.14Z"/>
    <path class="cls-23" d="m622.54,135.62c19.5,5.21,33.93,42.43,34.15,71.47.37,47.57-43.68,81.19-77.54,68.49-7.28-2.73-12.32-7.49-15.59-13.61-13.48-25.24,10.98-80.47,31.85-110.33,3.81-5.45,7.18-9.59,9.46-12.25,5.07-3.39,11.13-5.51,17.67-3.77Z"/>
    <path class="cls-23" d="m582.39,130.99c1.31,13.07,8.02,23.72,17.17,25.16,12.55,1.97,32.96-12.87,37.59-38.29.89-5.8,1.85-17.76-4.07-30-3.81-7.87-14.17-22.9-24.17-21.8-11.92,1.31-23.73,27.25-26.51,64.93Z"/>
    <path class="cls-23" d="m661.4,106.13c-9.69.88-19.96,32.1-22.77,58.66-4.6,43.51,13.06,83.1,30.22,78.22,3.69-1.05,6.51-4.41,8.62-9.36,8.71-20.44,2.31-75.92-4.76-107.44-1.29-5.75-2.5-10.21-3.32-13.11-2.08-4.11-4.74-7.27-7.99-6.98Z"/>
    <path class="cls-23" d="m740.08,125.24c-14.82,1.1-30.54,39.94-34.85,72.97-7.05,54.11,19.95,103.35,46.2,97.27,5.65-1.31,9.97-5.48,13.19-11.64,13.33-25.42,3.56-94.42-7.25-133.62-1.97-7.15-3.82-12.7-5.08-16.31-3.17-5.12-7.25-9.04-12.22-8.67Z"/>
    <path class="cls-23" d="m756.9,126.21c-1.31,13.44-6.33,23.33-12.81,23.11-8.88-.31-22.81-19.71-25.33-47.2-.45-6.24-.78-18.94,3.74-30.65,2.91-7.52,10.64-21.3,17.64-18.26,8.34,3.62,15.9,33.02,16.76,73.01Z"/>
    <path class="cls-23" d="m679.05,109.33c-1.16,10.81-5.61,18.76-11.35,18.58-7.87-.25-20.21-15.85-22.44-37.95-.4-5.02-.7-15.23,3.31-24.64,2.58-6.05,9.42-17.13,15.63-14.68,7.39,2.91,14.09,26.55,14.85,58.7Z"/>
    <path class="cls-30" d="m573,211.38c-10.93,1.09-22.53,39.93-25.7,72.96-5.2,54.11,14.74,103.35,34.11,97.28,4.17-1.31,7.35-5.48,9.73-11.64,9.83-25.42,2.61-94.42-5.38-133.62-1.46-7.15-2.82-12.7-3.75-16.31-2.34-5.12-5.35-9.04-9.02-8.68Z"/>
    <path class="cls-30" d="m586.84,192.82c-1.31,13.44-6.33,23.33-12.81,23.11-8.88-.31-22.81-19.71-25.33-47.2-.45-6.24-.78-18.94,3.74-30.65,2.91-7.52,10.64-21.3,17.64-18.26,8.34,3.62,15.9,33.02,16.76,73.01Z"/>
    <path class="cls-30" d="m668.95,202.5c-10.93,1.09-22.53,39.93-25.7,72.96-5.2,54.11,14.74,103.35,34.11,97.28,4.17-1.31,7.35-5.48,9.73-11.64,9.83-25.42,2.61-94.42-5.38-133.62-1.46-7.15-2.82-12.7-3.75-16.31-2.34-5.12-5.35-9.04-9.02-8.68Z"/>
    <path class="cls-30" d="m683.92,183.93c-2.09,13.44-10.16,23.33-20.55,23.11-14.26-.31-36.61-19.71-40.64-47.2-.73-6.24-1.26-18.94,6-30.65,4.66-7.52,17.07-21.3,28.3-18.26,13.39,3.62,25.52,33.02,26.9,73.01Z"/>
    <path class="cls-28" d="m472.04,282.28c17.66,5.56,30.72,45.27,30.93,76.25.34,50.75-39.56,86.62-70.22,73.07-6.6-2.91-11.16-8-14.12-14.52-12.21-26.93,9.94-85.85,28.84-117.71,3.45-5.81,6.5-10.23,8.57-13.07,4.59-3.61,10.08-5.88,16-4.02Z"/>
    <path class="cls-28" d="m435.67,277.34c1.19,13.95,7.26,25.31,15.55,26.84,11.36,2.1,29.85-13.73,34.04-40.85.8-6.19,1.68-18.94-3.69-32.01-3.45-8.4-12.84-24.43-21.89-23.26-10.79,1.39-21.5,29.07-24.01,69.27Z"/>
    <path class="cls-28" d="m523.52,251.18c-17.18,5.56-29.9,45.27-30.1,76.25-.33,50.75,38.49,86.62,68.33,73.07,6.42-2.91,10.86-8,13.74-14.52,11.88-26.93-9.67-85.85-28.07-117.71-3.36-5.81-6.33-10.23-8.34-13.07-4.46-3.61-9.81-5.88-15.57-4.02Z"/>
    <path class="cls-28" d="m560.04,243.45c-1.16,13.95-7.07,25.31-15.13,26.84-11.06,2.1-29.05-13.73-33.12-40.85-.78-6.19-1.63-18.94,3.59-32.01,3.35-8.4,12.49-24.43,21.3-23.26,10.5,1.39,20.92,29.07,23.37,69.27Z"/>
    <path class="cls-28" d="m600.52,267.48c-19.23,6.04-33.45,49.26-33.68,82.97-.37,55.22,43.07,94.25,76.46,79.5,7.18-3.17,12.15-8.7,15.37-15.8,13.29-29.3-10.82-93.41-31.41-128.08-3.76-6.32-7.08-11.13-9.33-14.22-5-3.93-10.97-6.4-17.42-4.37Z"/>
    <path class="cls-28" d="m629.95,260.71c-1.3,15.17-7.91,27.54-16.93,29.21-12.37,2.29-32.5-14.94-37.06-44.45-.87-6.73-1.82-20.61,4.01-34.82,3.75-9.14,13.98-26.58,23.83-25.31,11.75,1.52,23.4,31.63,26.14,75.37Z"/>
    <path class="cls-30" d="m704.27,154.46c-10.93,1.09-22.53,39.93-25.7,72.96-5.2,54.11,14.74,103.35,34.11,97.28,4.17-1.31,7.35-5.48,9.73-11.64,9.83-25.42,2.61-94.42-5.38-133.62-1.46-7.15-2.82-12.7-3.75-16.31-2.34-5.12-5.35-9.04-9.02-8.68Z"/>
    <path class="cls-30" d="m722.07,148.51c-1.31,9.59-6.33,16.65-12.81,16.49-8.88-.22-22.81-14.07-25.33-33.69-.45-4.45-.78-13.52,3.74-21.88,2.91-5.37,10.64-15.2,17.64-13.04,8.34,2.58,15.9,23.57,16.76,52.11Z"/>
    <path class="cls-28" d="m707.77,296.63c-17.41,5.56-30.29,45.27-30.5,76.25-.33,50.75,39,86.62,69.24,73.07,6.5-2.91,11-8,13.92-14.52,12.03-26.93-9.8-85.85-28.44-117.71-3.4-5.81-6.41-10.23-8.45-13.07-4.52-3.61-9.94-5.88-15.78-4.02Z"/>
    <path class="cls-28" d="m686.43,294.75c4.1,9.81,11.49,16.47,18.42,15.42,9.5-1.45,20.61-17.78,17.81-38.57-.76-4.7-2.95-14.19-10.16-22.27-4.64-5.19-15.72-14.37-22.64-11.15-8.26,3.84-10.5,26.73-3.42,56.57Z"/>
    <path class="cls-35" d="m653.76,300.97c-21.9,1.1-45.16,39.95-51.53,72.99-10.45,54.11,29.44,103.34,68.25,97.25,8.35-1.31,14.73-5.49,19.51-11.65,19.71-25.43,5.29-94.42-10.67-133.62-2.91-7.15-5.64-12.7-7.5-16.31-4.69-5.12-10.7-9.04-18.05-8.67Z"/>
    <path class="cls-18" d="m683.77,301.93c-2.3,13.44-11.14,23.33-22.54,23.11-15.63-.31-40.14-19.71-44.56-47.2-.8-6.24-1.38-18.94,6.57-30.65,5.11-7.52,18.72-21.3,31.03-18.26,14.68,3.62,27.98,33.02,29.49,73.01Z"/>
    <path class="cls-30" d="m762.58,188c-13.99,1.1-28.84,39.93-32.9,72.97-6.66,54.11,18.83,103.35,43.62,97.27,5.33-1.31,9.41-5.48,12.46-11.64,12.59-25.42,3.36-94.42-6.85-133.62-1.86-7.15-3.6-12.7-4.8-16.31-3-5.12-6.84-9.04-11.53-8.67Z"/>
    <path class="cls-30" d="m797.74,169.44c-2.05,13.44-9.92,23.33-20.08,23.11-13.92-.31-35.76-19.71-39.69-47.2-.71-6.24-1.23-18.94,5.86-30.65,4.56-7.52,16.67-21.3,27.64-18.26,13.08,3.62,24.93,33.02,26.27,73.01Z"/>
    <path class="cls-35" d="m839.15,300.56c-19.08,1.1-39.33,39.94-44.88,72.98-9.09,54.11,25.66,103.34,59.46,97.26,7.27-1.31,12.83-5.49,16.99-11.65,17.17-25.43,4.6-94.42-9.31-133.62-2.54-7.15-4.91-12.7-6.54-16.31-4.08-5.12-9.33-9.04-15.73-8.67Z"/>
    <path class="cls-18" d="m867.11,299.15c-1.83,13.44-8.88,23.33-17.97,23.11-12.46-.31-32.01-19.71-35.53-47.2-.64-6.24-1.1-18.94,5.24-30.65,4.08-7.52,14.92-21.3,24.74-18.26,11.71,3.62,22.31,33.02,23.51,73.01Z"/>
    <path class="cls-35" d="m576.52,324.65c-24.79,1.11-51.11,39.95-58.33,72.99-11.83,54.12,33.31,103.33,77.23,97.24,9.45-1.31,16.67-5.49,22.08-11.65,22.31-25.43,6-94.42-12.06-133.62-3.29-7.15-6.38-12.7-8.49-16.3-5.31-5.11-12.11-9.04-20.43-8.67Z"/>
    <path class="cls-18" d="m598.54,325.64c-1.84,13.44-8.9,23.33-18.01,23.11-12.49-.31-32.08-19.71-35.61-47.2-.64-6.24-1.1-18.94,5.25-30.65,4.09-7.52,14.96-21.3,24.8-18.26,11.73,3.62,22.36,33.02,23.57,73.01Z"/>
    <path class="cls-28" d="m1749.01,431.72c21,4.71,36.53,38.37,36.78,64.63.4,43.01-47.03,73.42-83.5,61.93-7.84-2.47-13.27-6.78-16.79-12.31-14.51-22.83,11.82-72.77,34.3-99.77,4.1-4.93,7.73-8.67,10.19-11.08,5.46-3.06,11.98-4.99,19.03-3.41Z"/>
    <path class="cls-28" d="m1704.11,417.74c1.42,11.82,8.64,21.45,18.49,22.75,13.51,1.78,35.5-11.64,40.47-34.62.95-5.24,1.99-16.06-4.38-27.13-4.1-7.12-15.26-20.7-26.03-19.71-12.83,1.18-25.56,24.64-28.55,58.71Z"/>
    <path class="cls-23" d="m1809.15,287.01c23.33-1.57,49.91,31.13,58.27,60.51,13.69,48.12-26.36,97.7-67.91,96.71-8.93-.21-15.92-3.27-21.29-8.33-22.17-20.88-10.14-85.49,4.96-123.11,2.75-6.86,5.38-12.25,7.2-15.75,4.74-5.22,10.95-9.5,18.78-10.03Z"/>
    <path class="cls-23" d="m1778.73,282.15c1.54,12.64,9.39,22.94,20.11,24.33,14.7,1.91,38.61-12.44,44.02-37.02,1.04-5.61,2.17-17.17-4.77-29-4.46-7.61-16.6-22.14-28.31-21.08-13.96,1.26-27.8,26.34-31.05,62.77Z"/>
    <path class="cls-23" d="m1829.9,395.03c16.06,4.71,27.95,38.37,28.14,64.63.31,43.01-35.99,73.42-63.89,61.93-6-2.47-10.15-6.78-12.84-12.31-11.1-22.83,9.04-72.77,26.24-99.77,3.14-4.93,5.92-8.67,7.79-11.08,4.17-3.06,9.17-4.99,14.56-3.41Z"/>
    <path class="cls-23" d="m1381.69,111.57c1.08,11.82,6.61,21.45,14.14,22.75,10.34,1.78,27.16-11.64,30.97-34.62.73-5.24,1.52-16.06-3.35-27.13-3.14-7.12-11.68-20.7-19.91-19.71-9.82,1.18-19.56,24.64-21.85,58.71Z"/>
    <path class="cls-27" d="m1587.21,424.29c17.47,5.03,30.4,41.02,30.61,69.1.33,45.99-39.14,78.5-69.49,66.22-6.53-2.64-11.04-7.25-13.97-13.16-12.08-24.41,9.84-77.8,28.54-106.67,3.41-5.27,6.44-9.27,8.48-11.85,4.54-3.28,9.97-5.33,15.83-3.64Z"/>
    <path class="cls-27" d="m1555.86,408.18c1.18,12.64,7.19,22.94,15.38,24.33,11.24,1.91,29.54-12.44,33.68-37.02.79-5.61,1.66-17.17-3.65-29-3.41-7.61-12.7-22.14-21.66-21.08-10.68,1.26-21.27,26.34-23.76,62.77Z"/>
    <path class="cls-27" d="m1811.78,484.09c20.47,3.25,40.73,41.48,45.41,72.62,7.66,51.01-31.65,92.36-67.76,82.78-7.77-2.06-13.58-6.57-17.81-12.74-17.47-25.48-1.24-87.68,15.25-122.22,3.01-6.3,5.78-11.15,7.67-14.28,4.59-4.24,10.38-7.25,17.25-6.16Z"/>
    <path class="cls-23" d="m1775.08,556.59c16.83,3.66,34.05,38.29,38.39,66.06,7.11,45.49-24.42,80.65-54.17,70.8-6.4-2.12-11.24-6.33-14.8-11.96-14.73-23.24-2.45-77.74,10.49-107.73,2.36-5.47,4.55-9.66,6.05-12.37,3.69-3.59,8.39-6.03,14.04-4.8Z"/>
    <path class="cls-27" d="m1783.15,484.2c2.74,14.06,11.46,24.69,22.13,24.93,14.63.33,36.75-18.81,39.69-47.18.48-6.45.47-19.62-7.5-32.1-5.12-8.03-18.47-22.89-29.88-20.25-13.6,3.15-24.78,33.14-24.45,74.6Z"/>
    <path class="cls-25" d="m1756.68,547.4c1.08,11.82,6.61,21.45,14.14,22.75,10.34,1.78,27.16-11.64,30.97-34.62.73-5.24,1.52-16.06-3.35-27.13-3.14-7.12-11.68-20.7-19.91-19.71-9.82,1.18-19.56,24.64-21.85,58.71Z"/>
    <path class="cls-23" d="m55.75,346.87c19.59,1.39,39.93,35.14,45.24,63.58,8.69,46.57-27.61,87.93-62.27,81.92-7.45-1.29-13.12-5-17.32-10.38-17.33-22.19-3.59-81,11.17-114.25,2.69-6.07,5.2-10.77,6.91-13.82,4.26-4.29,9.69-7.52,16.26-7.06Z"/>
    <path class="cls-23" d="m28.37,342.98c3.55,12.57,11.84,21.73,20.85,21.4,12.36-.46,29.32-18.9,29.29-44.7-.17-5.85-1.34-17.76-9.16-28.64-5.02-6.99-17.59-19.75-26.97-16.77-11.18,3.55-17.96,31.24-14.02,68.71Z"/>
    <path class="cls-23" d="m108.72,309.54c-19.98,11.7-25.75,52.27-18.15,80.12,12.44,45.62,69.84,62.58,103.55,38.76,7.25-5.12,11.49-11.42,13.42-18.39,7.96-28.79-33.78-73.17-64.74-94.52-5.65-3.9-10.47-6.69-13.68-8.46-6.47-1.49-13.69-1.44-20.4,2.49Z"/>
    <path class="cls-23" d="m151.52,291.27c2.09,12.95-2.39,25.45-12.03,29.98-13.23,6.21-39.63-.94-51.57-23.65-2.54-5.24-6.83-16.34-3.64-30.09,2.05-8.84,9.36-26.78,20.62-29.18,13.42-2.86,33.39,17.87,46.62,52.95Z"/>
    <path class="cls-23" d="m219.43,298.96c23.34.66,46.48,33.94,51.84,62.43,8.78,46.66-35.98,89.77-77.17,85.04-8.86-1.02-15.49-4.55-20.32-9.81-19.94-21.73-1.51-81.59,17.26-115.71,3.42-6.23,6.58-11.06,8.73-14.2,5.23-4.49,11.83-7.96,19.66-7.74Z"/>
    <path class="cls-23" d="m172.43,303.6c3.81,12.55,13.39,21.48,24.17,20.8,14.78-.93,35.66-20.19,36.51-46.22,0-5.9-.99-17.87-9.95-28.55-5.76-6.86-20.33-19.26-31.63-15.9-13.48,4.01-22.52,32.2-19.1,69.87Z"/>
    <path class="cls-23" d="m258.95,261.1c-10.99,3.08-17.33,36.11-15.89,62.86,2.34,43.81,29.61,78.67,48.5,69.95,4.06-1.88,6.72-5.82,8.28-11.17,6.43-22.08-10.67-75.13-24.35-104.49-2.49-5.36-4.67-9.47-6.13-12.13-3.11-3.57-6.73-6.06-10.41-5.03Z"/>
    <path class="cls-23" d="m352.82,261.88c-16.85,4.47-28.12,46.23-27.27,79.68,1.39,54.79,41.1,96.99,70.23,85.02,6.27-2.58,10.5-7.67,13.13-14.46,10.87-28.03-12.49-93.6-31.81-129.65-3.52-6.58-6.62-11.61-8.71-14.86-4.55-4.3-9.92-7.23-15.58-5.73Z"/>
    <path class="cls-23" d="m372.34,258.99c.86,13.51-3.19,24.37-10.68,25.64-10.27,1.73-29.7-14.15-37.42-40.59-1.62-6.03-4.23-18.44-1.08-30.97,2.02-8.06,8.5-23.36,17.08-21.98,10.23,1.65,24.09,28.81,32.1,67.91Z"/>
    <path class="cls-23" d="m279.95,251.67c.57,10.89-3.16,19.72-9.79,20.85-9.1,1.56-26.03-10.95-32.48-32.16-1.34-4.84-3.47-14.81-.52-24.97,1.9-6.53,7.83-18.98,15.4-18,9.02,1.17,20.87,22.87,27.39,54.29Z"/>
    <path class="cls-30" d="m175.74,384.75c-12.39,3.58-18.91,44.39-16.75,77.58,3.52,54.36,35.1,98.19,56.32,87.8,4.56-2.24,7.5-7.07,9.15-13.66,6.85-27.23-13.58-93.38-29.65-130.08-2.93-6.7-5.47-11.84-7.18-15.17-3.59-4.49-7.74-7.66-11.9-6.46Z"/>
    <path class="cls-18" d="m226.8,496.15c.86,13.51-3.19,24.37-10.68,25.64-10.27,1.73-29.7-14.15-37.42-40.59-1.62-6.03-4.23-18.44-1.08-30.97,2.02-8.06,8.5-23.36,17.08-21.98,10.23,1.65,24.09,28.81,32.1,67.91Z"/>
    <path class="cls-23" d="m1592.97,259.17c-8.24,10.85-22.64,15.97-35.84,11.23-18.1-6.5-38.65-33.26-32.42-59.08,1.65-5.78,6.23-17.13,20.35-24.2,9.08-4.54,30.63-11.17,43.74-3.6,15.62,9.02,18.96,40.06,4.18,75.65Z"/>
    <path class="cls-30" d="m188.41,363.34c.86,13.51-3.19,24.37-10.68,25.64-10.27,1.73-29.7-14.15-37.42-40.59-1.62-6.03-4.23-18.44-1.08-30.97,2.02-8.06,8.5-23.36,17.08-21.98,10.23,1.65,24.09,28.81,32.1,67.91Z"/>
    <path class="cls-30" d="m284.55,354.07c-12.39,3.58-18.91,44.39-16.75,77.58,3.52,54.36,35.1,98.19,56.32,87.8,4.56-2.24,7.5-7.07,9.15-13.66,6.85-27.23-13.58-93.38-29.65-130.08-2.93-6.7-5.47-11.84-7.18-15.17-3.59-4.49-7.74-7.66-11.9-6.46Z"/>
    <path class="cls-30" d="m298.52,332.4c.86,13.51-3.19,24.37-10.68,25.64-10.27,1.73-29.7-14.15-37.42-40.59-1.62-6.03-4.23-18.44-1.08-30.97,2.02-8.06,8.5-23.36,17.08-21.98,10.23,1.65,24.09,28.81,32.1,67.91Z"/>
    <path class="cls-25" d="m72.06,477.51c21.29,1.42,43.29,37.46,48.97,67.86,9.3,49.79-30.29,94.17-67.95,87.86-8.1-1.36-14.24-5.3-18.79-11.04-18.77-23.67-3.64-86.64,12.51-122.27,2.95-6.5,5.69-11.54,7.56-14.81,4.64-4.6,10.56-8.08,17.7-7.61Z"/>
    <path class="cls-25" d="m103.58,417.9c-2.13-13.81-9.84-24.64-19.61-25.48-13.4-1.16-34.18,16.16-37.64,43.54-.61,6.23-.95,19.03,6.01,31.61,4.48,8.09,16.31,23.29,26.84,21.38,12.55-2.28,23.59-30.76,24.4-71.05Z"/>
    <path class="cls-25" d="m125.82,424.17c-18.79,9.39-26.44,51.32-21.23,81.82,8.53,49.95,59.49,76.31,91.44,56.17,6.87-4.33,11.09-10.34,13.25-17.41,8.93-29.18-26.2-82.15-52.96-109.25-4.88-4.94-9.08-8.6-11.88-10.94-5.77-2.53-12.31-3.54-18.62-.39Z"/>
    <path class="cls-25" d="m166.47,419.22c1.12,13.97-3.68,26.49-12.69,29.84-12.35,4.6-35.83-6.85-45.28-32.57-1.98-5.9-5.2-18.24-1.49-32.27,2.38-9.02,10.08-26.86,20.42-27.73,12.32-1.03,29.17,23.78,39.04,62.72Z"/>
    <path class="cls-28" d="m217.25,433.58c-21.06,10.34-29.83,56.05-24.17,89.23,9.27,54.35,66.09,82.76,101.92,60.64,7.7-4.76,12.45-11.33,14.91-19.04,10.14-31.84-28.86-89.32-58.62-118.68-5.43-5.36-10.1-9.31-13.23-11.84-6.44-2.72-13.74-3.78-20.81-.31Z"/>
    <path class="cls-28" d="m249.92,420.2c1.17,15.21-4.26,28.87-14.34,32.57-13.83,5.08-40.01-7.25-50.44-35.2-2.19-6.41-5.72-19.84-1.5-35.14,2.71-9.84,11.41-29.31,22.97-30.32,13.78-1.2,32.48,25.73,43.31,68.08Z"/>
    <path class="cls-30" d="m323.77,324.86c-12.39,3.58-18.91,44.39-16.75,77.58,3.52,54.36,35.1,98.19,56.32,87.8,4.56-2.24,7.5-7.07,9.15-13.66,6.85-27.23-13.58-93.38-29.65-130.08-2.93-6.7-5.47-11.84-7.18-15.17-3.59-4.49-7.74-7.66-11.9-6.46Z"/>
    <path class="cls-30" d="m348.99,322.98c.86,13.51-3.19,24.37-10.68,25.64-10.27,1.73-29.7-14.15-37.42-40.59-1.62-6.03-4.23-18.44-1.08-30.97,2.02-8.06,8.5-23.36,17.08-21.98,10.23,1.65,24.09,28.81,32.1,67.91Z"/>
    <path class="cls-28" d="m333.47,435.04c-19.05,9.44-26.9,51.41-21.69,81.91,8.53,49.95,60.07,76.2,92.48,55.97,6.97-4.35,11.25-10.37,13.46-17.45,9.11-29.22-26.35-82.13-53.38-109.17-4.93-4.93-9.17-8.58-12.01-10.91-5.84-2.52-12.46-3.51-18.85-.34Z"/>
    <path class="cls-28" d="m312.6,419.25c2.71,13.69,9.98,24.61,18.36,25.73,11.49,1.54,28.08-14.94,29.25-41.87.11-6.14-.42-18.75-7.17-31.38-4.34-8.12-15.41-23.48-24.25-21.9-10.54,1.88-18.11,29.67-16.18,69.42Z"/>
    <path class="cls-35" d="m289.96,453.19c-16.85,4.47-28.12,46.23-27.27,79.68,1.39,54.79,41.1,96.99,70.23,85.02,6.27-2.58,10.5-7.67,13.13-14.46,10.87-28.03-12.49-93.6-31.81-129.65-3.52-6.58-6.62-11.61-8.71-14.86-4.55-4.3-9.92-7.23-15.58-5.73Z"/>
    <path class="cls-18" d="m309.48,450.3c.86,13.51-3.19,24.37-10.68,25.64-10.27,1.73-29.7-14.15-37.42-40.59-1.62-6.03-4.23-18.44-1.08-30.97,2.02-8.06,8.5-23.36,17.08-21.98,10.23,1.65,24.09,28.81,32.1,67.91Z"/>
    <path class="cls-23" d="m1654,129.71c2.9-10.54,10.83-17.13,20.03-15.09,12.63,2.8,30.95,22.55,32.39,45.59.16,5.2-.35,15.61-7.7,23.81-4.72,5.27-16.8,14.24-26.53,9.77-11.6-5.33-20.08-31.37-18.2-64.09Z"/>
    <path class="cls-30" d="m385.01,109.32c-12.39,3.58-18.91,44.39-16.75,77.58,3.52,54.36,35.1,98.19,56.32,87.8,4.56-2.24,7.5-7.07,9.15-13.66,6.85-27.23-13.58-93.38-29.65-130.08-2.93-6.7-5.47-11.84-7.18-15.17-3.59-4.49-7.74-7.66-11.9-6.46Z"/>
    <path class="cls-30" d="m413.02,117.2c.86,13.51-3.19,24.37-10.68,25.64-10.27,1.73-29.7-14.15-37.42-40.59-1.62-6.03-4.23-18.44-1.08-30.97,2.02-8.06,8.5-23.36,17.08-21.98,10.23,1.65,24.09,28.81,32.1,67.91Z"/>
    <path class="cls-35" d="m425.09,342.6c-16.85,4.47-28.12,46.23-27.27,79.68,1.39,54.79,41.1,96.99,70.23,85.02,6.27-2.58,10.5-7.67,13.13-14.46,10.87-28.03-12.49-93.6-31.81-129.65-3.52-6.58-6.62-11.61-8.71-14.86-4.55-4.3-9.92-7.23-15.58-5.73Z"/>
    <path class="cls-18" d="m458.39,334.43c1.54,13.45-1.96,24.51-9.38,26.15-10.17,2.25-30.38-12.61-39.41-38.63-1.92-5.94-5.15-18.2-2.63-30.88,1.62-8.15,7.31-23.77,15.96-22.82,10.3,1.12,25.51,27.54,35.46,66.19Z"/>
    <path class="cls-35" d="m150.65,447.07c-16.85,4.47-28.12,46.23-27.27,79.68,1.39,54.79,41.1,96.99,70.23,85.02,6.27-2.58,10.5-7.67,13.13-14.46,10.87-28.03-12.49-93.6-31.81-129.65-3.52-6.58-6.62-11.61-8.71-14.86-4.55-4.3-9.92-7.23-15.58-5.73Z"/>
    <path class="cls-6" d="m1821.83,1124c-576.46-1.02-1152.91-2.04-1729.37-3.06-60.06-.11-100.43-60.59-76.65-114.83L280.64,402.21c13.22-30.14,43.39-49.67,76.77-49.68,402.42-.15,804.84-.31,1207.27-.46,33.78-.01,64.25,19.96,77.24,50.63,85.76,202.47,171.52,404.95,257.28,607.42,22.97,54.24-17.61,113.99-77.36,113.88Z"/>
    <path class="cls-15" d="m416.13,203.02s0,0,0,0c0,0-.01.4,0,.41.09.44,114.92-38.09,222.5-38.24,83.61-.11,84.59,23.07,170.46,18,62.59-3.69,70.99-16.53,141.72-20,71.73-3.51,67.51,9.48,145.68,8,89.6-1.69,108.56-19.01,178.38-8,30.63,4.83,53.22,8.39,82.26,20,26.79,10.71,40.22,20.72,72.79,28.98,3.93,1,22.76,5.68,48.11,8.01,34.32,3.16,55.94-.24,82.26,13,9.41,4.74,12.8,8.27,14.87,11,12.07,15.97,8.66,44.15-.99,57-9.8,13.03-34.93,22.11-207.12-24-104.53-27.99-115.96-36.88-157.57-35-53.4,2.41-61.91,18.27-119.91,16-53.38-2.09-66.42-16.32-114.96-14-44.66,2.13-63.75,15.62-98.11,25-83.07,22.68-112.4-17.67-209.37-21.63-132.43-5.4-252.4,62.81-260.38,43.63-2.78-6.67,6.47-26.8,7.02-52.35.02-.7.03-1.77.08-3.58.42-13.47,1.42-24.44,2.31-32.24Z"/>
    <path class="cls-15" d="m1905.14,862.13c2.21-20.78-.61-44.29-3.4-69.1-3.29-29.2-5.17-29-7.93-58-1.71-17.93-1.53-23.78-3.96-51-1.91-21.38-2.86-32.07-3.96-39-3.92-24.68-9.15-57.54-31.28-84.88-11.64-14.38-20.83-18.88-35.68-41-22.47-33.48-18.5-47.93-34.69-74.99-23.19-38.78-55.19-30.61-84.24-73.99-24.86-37.13-6.66-60.63-37.66-95.99-7.83-8.93-22.98-26.21-45.59-31-6.53-1.38-10.68-1.09-25.77-4-23.31-4.5-24.82-7.4-30.72-6-19.2,4.56-37.23,43.35-22.79,67.99,5.71,9.75,14.96,14.64,20.81,17,6.94.33,13.87.67,20.81,1,6.99.61,11.92,2.56,14.87,4,23.98,11.71,22.61,41.19,52.65,98.14,3.56,6.75,5.23,10.2,7.8,13.85,21.29,30.21,45.96,35.76,66.4,51,29.3,21.84,28.44,51.98,52.52,121.99,42,122.11,101.91,166.02,79.84,199.87-14.01,21.48-43.14,9.14-58.47,33-23.86,37.14,12.26,119.63,46.58,120.99,28.92,1.15,59.11-55.22,63.86-99.88Z"/>
    <path class="cls-15" d="m43.57,890.96c.16-.06.27.2.43.17,2.44-.62-12-70.98-23.78-140.99-2.46-14.61-7.2-44.24-1.31-81.08.51-3.22.93-6.07,1.84-10.02,7.92-34.16,26.11-59.63,39.91-75.48,9.17-9.58,22.23-24.79,33.82-45.44,3.28-5.84,5.95-11.63,11.4-24.64,14.48-34.61,20.06-53.68,24.35-64.31,16.06-39.86,41.52-29.59,75.43-74.8,11.8-15.73,6.7-12.45,54.39-109.18,7.75-15.71,15.13-30.69,31.71-42,17.12-11.67,44.98-20.05,64.42-11,2.91,1.36,4.66,2.65,8.92,4,18.53,5.88,34.91-2.88,35.68-1,.63,1.53-11.45,4.61-19.82,13-21.47,21.53-2.11,61.62-18.83,71.99-8.29,5.14-14.6-3.75-28.74,0-16.86,4.47-25.56,21.82-34.69,40-13.29,26.48-10.27,36.87-28.21,78.28-3.19,7.36-4.67,11.18-6.77,14.8-13.22,22.81-31.56,29.81-46.28,40.91-18.07,13.62-25.69,29.65-39.64,58.99-17.58,36.99-11.26,50.41-22.22,87.77-24.29,82.77-70.78,100.02-84.34,174.48-1.65,9.04-1.68,18.94.4,30.56,8.14,45.62,41.91,79.71,21.49,108.7-5.16,7.32-15.31,16.49-24.49,15.02-20.13-3.24-27.25-57.94-25.05-58.74Z"/>
    <path class="cls-17" d="m1509.23,397.31c-.77-28.19-6.16-245.2,19.91-257.4,4.73-2.21,9.95-3.24,9.95-3.24,18.18-3.56,36.63,4.01,41.48,11.12,7.93,11.64-4.51,41.06-4.51,132.96,0,74.34,16.02,130.29-5.62,145.42-2.77,1.93-9.21,5.31-17.13,6.76-9.83,1.79-26.48,6.47-36.69-4.26-2.11-2.22-5.91-7.14-7.39-16.79v-14.57Z"/>
    <path class="cls-17" d="m346.76,382.17c-.86-29.29-6.85-254.73,22.13-267.41,5.26-2.3,11.07-3.36,11.07-3.36,20.21-3.7,40.73,4.17,46.12,11.55,8.82,12.09-5.01,42.66-5.01,138.13,0,77.24,17.81,135.36-6.25,151.08-3.08,2.01-10.24,5.52-19.05,7.02-10.93,1.86-29.44,6.73-40.8-4.42-2.35-2.3-6.57-7.42-8.21-17.44v-15.14Z"/>
    <path class="cls-37" d="m349.73,195.69c24.11,2.06,48.23,4.13,72.34,6.19-.53,11.43-1.05,22.87-1.58,34.3-24.58-1.11-49.16-2.23-73.74-3.34"/>
    <path class="cls-17" d="m56.72,1035.41c-1.83-49.41-14.62-429.78,47.27-451.17,11.23-3.88,23.63-5.68,23.63-5.68,43.17-6.24,86.98,7.03,98.49,19.49,18.84,20.4-10.71,71.98-10.71,233.06,0,130.31,38.04,228.38-13.34,254.89-6.57,3.39-21.86,9.31-40.68,11.84-23.35,3.14-62.88,11.35-87.12-7.46-5.01-3.89-14.04-12.51-17.54-29.43v-25.54Z"/>
    <path class="cls-17" d="m1863.59,1036.62c1.77-49.72,14.12-432.43-45.67-453.95-10.85-3.91-22.83-5.71-22.83-5.71-41.71-6.28-84.04,7.07-95.16,19.61-18.21,20.53,10.35,72.42,10.35,234.49,0,131.11-36.76,229.78,12.89,256.46,6.35,3.41,21.12,9.36,39.3,11.91,22.56,3.16,60.75,11.42,84.18-7.51,4.84-3.91,13.56-12.59,16.95-29.61v-25.7Z"/>
    <path class="cls-37" d="m345.77,260.68c25.33.81,50.66,1.61,75.99,2.42-.23,9.86-.45,19.72-.68,29.58-25.11,2.67-50.21,5.33-75.32,8"/>
    <path class="cls-37" d="m1508.24,280.68c22.46,1.67,44.93,3.33,67.39,5,.66,11,1.32,22,1.98,33-22.96-3.16-45.92-6.32-68.88-9.49"/>
    <path class="cls-37" d="m1509.31,232c22.77-.11,45.53-.21,68.3-.32-.33,9.67-.66,19.33-.99,29-22.46-1-44.93-2-67.39-3"/>
    <path class="cls-37" d="m1706.42,761.95l155.08-5.99,4.34,77.55-155.96-6.22"/>
    <path class="cls-37" d="m1704.38,930.35c53.83,6.51,107.67,13.02,161.5,19.53-.62-24.75-1.24-49.5-1.87-74.25-51.79-1.29-103.58-2.57-155.37-3.86"/>
    <path class="cls-37" d="m62.33,687.65c52.85,11.33,105.71,22.66,158.56,34-1.65,23-3.3,46-4.96,68.99-53.07-8.13-106.14-16.27-159.22-24.4"/>
    <path class="cls-37" d="m55.4,824.64c53.18,9,106.37,18,159.56,27,1.81,24.65,3.63,49.31,5.44,73.96-55.86-7.01-111.71-14.02-167.57-21.02"/>
  </g>
  <g id="bb">
    <path class="cls-33" d="m438.54,308.36s-12.46-17.41,0-37.59c-2.47-1.47,32.71-50.52,58.56-3.76,31.63,57.2-51.11,61.6-58.56,41.35Z"/>
    <path class="cls-33" d="m867.67,296.53s-12.46-17.41,0-37.59c-2.47-1.47,32.71-50.52,58.56-3.76,31.63,57.2-51.11,61.6-58.56,41.35Z"/>
    <path class="cls-24" d="m508.41,253.2s190.28-260.54,357.63,9.38c167.81,270.67-361.27,163.59-362.15,157.3,3.83,4.28-108.73-26.81,4.52-166.69Z"/>
    <path class="cls-14" d="m701.25,165.82c-78.66-28.74,66.76-72.61,5.44-94.61"/>
    <path class="cls-16" d="m682.22,115.88c19.53-41.67,29.03,22.39,44.06-10.04"/>
    <path class="cls-32" d="m593,303.15s-12.46-17.41,0-37.59c-2.47-1.47,32.71-50.52,58.56-3.76,31.63,57.2-51.11,61.6-58.56,41.35Z"/>
    <path class="cls-32" d="m795.79,283.29s-.67,22.57-21.59,28.13c1,2.99-53.48,12.73-45.97-42.08,9.19-67.04,73.61-6.91,67.56,13.96Z"/>
    <path class="cls-1" d="m649.77,289.26s-.2,7.87-7.49,9.79c.35,1.04-18.65,4.39-16.11-14.72,3.11-23.37,25.68-2.34,23.6,4.93Z"/>
    <path class="cls-2" d="m656.71,368.46s9.46,3.14,12.18,3.14,37.76,2.47,35.24-1.57"/>
    <path class="cls-1" d="m763.39,286.08s-.46,7.87-7.75,10.04c.32,1.03-18.63,5.04-15.48-14.15,3.85-23.47,25.53-3.24,23.23,4.1Z"/>
    <path class="cls-26" d="m656.71,368.46s20.9-22.56,23.23-11.28c2.32,11.28,1.65-14.44,21.73,4.06,20.08,18.5-44.96,37.29-44.96,7.22Z"/>
    <path class="cls-36" d="m673.66,369.03l-.47,31.19s-.08,9.37,12.26,4.94c12.34-4.43,7.77-27.43,7.77-27.43l-2.97-7.75-16.59-.95Z"/>
    <path class="cls-7" d="m683.89,374.41v19.04s-3.25,18.8,0,0c3.25-18.8,0-18.8,0-18.8"/>
    <path class="cls-10" d="m768.92,346.8s-5.65-4.66-1.71-12.06c-1.03-.29,10.45-18.61,22.65-5.52,14.92,16.01-17.12,23.52-20.94,17.57Z"/>
    <path class="cls-10" d="m590.64,345.85s-2.25-7.58,4.67-10.96c-.69-.92,17.86-8.15,21.21,10.7,4.1,23.05-25.75,7.67-25.88.26Z"/>
    <path class="cls-33" d="m883.61,267.34s12.07-26.93,23.56-10.66,14.52,19.72,6.43,29.83"/>
    <path class="cls-33" d="m464.13,303.01s-26.71-2.88-17.38-20.81c9.33-17.93,11.09-22.36,22.41-17.54"/>
    <path class="cls-14" d="m611.95,212.31c-22.66,8.39-37.48,21.11-36.57,32.15.15,1.85.78,3.98,2.34,6.31,4.42-6.67,11.23-15.44,21.06-23.66,8.8-7.36,17.23-11.93,23.69-14.79h-10.53Z"/>
    <path class="cls-14" d="m802.33,240.96c-13.72-21.93-28.86-34.17-37.99-29.99-1.54.7-3.17,1.99-4.69,4.35,6.97,2.82,16.41,7.59,26.27,15.78,8.82,7.33,15.16,15.06,19.47,21.18-1.02-3.77-2.04-7.55-3.06-11.32Z"/>
    <path class="cls-4" d="m677.96,186.25c3.23-2.84,8.42-6.33,14.8-6.03,7.2.34,13.06,5.38,12.95,6.03-.1.6-5.1-3.04-12.95-3.01-7.08.02-14.78,3.01-14.8,3.01Z"/>
    <path class="cls-4" d="m683.21,193.28c2.14-2.47,5.58-5.5,9.81-5.24,4.77.3,8.66,4.67,8.59,5.24-.07.52-3.38-2.64-8.59-2.62-4.69.02-9.8,2.62-9.81,2.62Z"/>
    <path class="cls-32" d="m705.51,319.24c.89.7,3.42,2.9,4.32,6.82.18.79,1.29,5.63-1.31,8.75-1.82,2.18-4.94,2.92-5.63,1.93-.69-.98,1.45-2.85.87-5.83-.05-.28-.49-2.39-2.16-3.41-1.11-.68-2.24-.55-2.6-.49-3.35.54-4.38,5.24-6.07,4.85-.43-.1-1-1.2-2.16-3.41-1.09-2.09-1.29-2.83-2.16-3.41-1.17-.78-2.43-.53-2.6-.49-2.32.51-3.93,3.6-3.47,5.34.12.45.42.97.28,1.7-.08.46-.36,1.09-.72,1.22-1.05.39-4.04-2.91-4.32-6.82-.24-3.37,1.58-6.69,3.91-8.26,2.4-1.61,4.03-.41,5.63-1.93,1.25-1.19,2.08-3.63,1.31-8.75-.17-.68-.84-3.48.41-4.79.88-.93,2.3-.69,3.06-.55,11.43,2.09,17.15,3.14,17.74,6.36.1.54.16,1.51-.44,2.92-1.3,2.75-2.61,5.51-3.91,8.26Z"/>
    <path class="cls-32" d="m691.36,316.33c1.93-.04,3.54.12,4.67.28.93.13,1.52.22,2.29.47.36.11,3.31,1.08,3.73,2.54.07.25.1.61-.17,1.03"/>
    <path class="cls-4" d="m633.48,200.31c2.76-1.17,6.52-2.29,8.25-.31,1.95,2.23.54,7.52.1,7.96-.41.41.38-3.62-2-5.77-2.14-1.94-6.34-1.89-6.35-1.89Z"/>
    <path class="cls-4" d="m743.27,209.03c-1.46-2.68-2.98-6.39-1.27-8.4,1.92-2.26,7.19-1.45,7.67-1.04.44.37-3.53.04-5.32,2.72-1.61,2.42-1.07,6.7-1.07,6.72Z"/>
    <path class="cls-4" d="m645.87,287.88s-.5,5.59-5.68,7.31c.2.72-13.22,4.01-10.58-9.67,3.23-16.73,18.04-2.9,16.26,2.36Z"/>
    <path class="cls-4" d="m758.36,285.74s-.19,5.48-5.27,6.86c.24.72-12.98,3.18-11.1-10.14,2.3-16.29,17.86-1.8,16.36,3.28Z"/>
    <path class="cls-7" d="m749.31,281.14s-.07,1.46-1.47,1.85c.06.19-3.57.9-3.01-2.66.69-4.34,4.9-.55,4.48.81Z"/>
    <path class="cls-7" d="m638.21,283.48s-.07,1.46-1.47,1.85c.06.19-3.57.9-3.01-2.66.69-4.34,4.9-.55,4.48.81Z"/>
    <path class="cls-4" d="m628.08,329.48c4.81,3.14,10.93,8.39,11.51,15.9.65,8.47-6,16.42-7,16.44-.92.01,3.76-6.62,2.45-15.76-1.18-8.24-6.95-16.55-6.96-16.57Z"/>
    <path class="cls-4" d="m764.01,361.15c-4.52-3.56-10.17-9.36-10.1-16.89.08-8.49,7.39-15.81,8.39-15.73.91.07-4.31,6.26-3.79,15.48.47,8.32,5.5,17.12,5.51,17.14Z"/>
    <path class="cls-5" d="m786.01,335.7c-3.68-4.54-4.41-4.59-7.74-1.78-3.33,2.82,6.15,7.63,6.15,7.63.07,0,1.68.04,2.28-1.7.43-1.25.16-2.9-.69-4.15Z"/>
    <path class="cls-5" d="m607.07,342.27c-3.68-4.54-4.41-4.59-7.74-1.78s6.15,7.63,6.15,7.63c.07,0,1.68.04,2.28-1.7.43-1.25.16-2.9-.69-4.15Z"/>
    <path class="cls-4" d="m678.71,429.15c-4.36,3.77-11.08,8.18-18.21,6.48-8.04-1.92-13.39-10.86-13.1-11.85.27-.9,4.99,5.69,13.85,7.18,7.99,1.34,17.42-1.8,17.45-1.81Z"/>
    <path class="cls-5" d="m586,200c13.12-9.08,15.51-12.06,15-13-.96-1.79-13.72,1.09-24,9-6.77,5.21-6.22,7.81-16,16-6.01,5.03-7.87,5.44-13,10-6.28,5.58-10.45,11.16-13,15-1.55,6.59-.91,8.51,0,9,2.75,1.5,8.32-9.85,23-20,8.15-5.63,11.72-5.8,18-12,5.16-5.09,8.23-10.39,10-14Z"/>
    <path class="cls-3" d="m579.16,202.85c7.71-5.47,9.28-7.04,9.13-7.39-.27-.66-7.07,2.1-13.2,6.74-4.05,3.05-4.07,4.1-9.99,8.8-3.64,2.88-4.62,3.28-7.76,5.86-3.84,3.15-6.61,6.05-8.36,8.01-1.57,3.02-1.47,3.77-1.07,3.88,1.21.32,5.38-5.23,14.01-11.35,4.79-3.4,6.61-3.89,10.53-7.31,3.22-2.81,5.4-5.46,6.72-7.22Z"/>
    <path class="cls-22" d="m881.33,815.41c-54.01-4.15-98.39-30.69-114-69.71-9.91-24.77-5.59-47.99-1.95-60.65,1.33-1.38,14.67-14.78,28.15-12.06,5.79,1.17,9.42,4.87,11.73,7.66,14.93,18.08,13.73,46.05,13.63,49.87-.54,19.77,10.51,48.08,62.44,84.89Z"/>
    <path class="cls-29" d="m1026.53,912.76c.99,5.33-.39,9.84-1.05,11.82-8.31,24.9-59.41,13.32-63.85,12.26-14.59-1.98-29.19-3.96-43.78-5.94-22.19.25-39.56-13.11-41.48-25.24-2.03-12.91,12.14-32.67,37.78-35.47,1.23-.54,1.99-1.26,2.46-1.92,0,0,.37-.52.61-1.14,1.2-3.08-109.56-88.63-106.96-147.63.23-5.17,1.63-17.05,5.04-30.4,4.8-18.79,11.83-33.66,17.61-43.99,1.77-8.45,6.96-27.01,23.56-42.88,13.03-12.46,27.13-17.55,33.5-19.77,9.32-3.26,18.15-4.79,29.02-5.6,30.33-2.26,59.63,2.43,79.78,6.92,11.8,2.58,20.98,6.11,27.13,8.84,13.72,6.08,33.29,14.76,43.49,34.13,3.33,6.33,4.76,12.08,5.44,15.75,32.82,46.5,34.74,79.25,28.99,101.51-18.11,70.14-130.12,105.06-120.05,133.71,1.66,4.74,6.06,7.59,9.3,9.21,18.02,3.62,31.19,13.63,33.45,25.83Z"/>
    <path class="cls-34" d="m1080.73,784.7c-14.19-8.69-57.64-32.83-117.75-29.04-60.46,3.81-100.46,33.52-113.29,43.92-4.7-5.52-9.64-11.93-14.5-19.25-5.68-8.56-10.15-16.73-13.68-24.08,34.28-63.28,103.71-97.72,169.07-86.26,72.29,12.67,106.15,75.61,110.09,83.22-2.4,5.89-5.85,12.85-10.87,20.13-3.02,4.38-6.12,8.16-9.06,11.38Z"/>
    <g>
      <path class="cls-19" d="m877.47,702.72c4.23-1.42,10.29-3.53,14.71-.51,1.16.79,2.36,2.35,4.78,5.48,1.83,2.38,3.22,4.11,4.33,6.71,1.34,3.13,2.27,4.96,1.68,7.07-.48,1.72-2.19,3.7-5.13,5.92,4.02-1.08,7.12-1.13,9.28-.15,2.16.98,4.14,3.14,5.92,6.47l2.54,4.75c1.85,3.46,2.76,6.25,2.71,8.38-.01.59-.09,1.16-.23,1.71-.32,1.22-1.13,1.67-2.42,3.89-.02.03-.03.06-.04.08-14.64,7.46-29.28,14.93-43.93,22.39,1.83-14.29.51-25.65-1.17-33.69-3.19-15.17-9.18-25.48-3.94-32.41,2.45-3.25,6.51-4.61,10.91-6.09Zm.29,14.89c-.73,2.13-.04,4.36,1.34,8.81,1.58,5.11,2.37,7.66,4.25,8.52,4.02,1.82,11.28-3.68,13.22-10.3.35-1.19.48-2.25.52-3.04-.62-1.93-1.24-3.85-1.86-5.78-.59-1.06-1.67-2.63-3.51-3.62-4.93-2.65-12.31.55-13.97,5.41Zm7.61,21.86c.41,3.9.9,7.91,1.48,12.01.33,2.32.68,4.61,1.04,6.85,12.22-.09,20.47-5.91,20.84-12.07.07-1.11-.02-3.93-3.13-7.64-1.82-1.14-3.63-2.28-5.45-3.42-3.1.78-6.28,1.65-9.52,2.62-1.79.54-3.54,1.08-5.26,1.64Z"/>
      <path class="cls-19" d="m974.27,715.47c.45,6.51.64,11.12.58,13.84-.06,2.72-.67,5.23-1.82,7.54-1.15,2.31-2.79,4.12-4.93,5.44-2.14,1.32-4.68,2.05-7.63,2.21-2.8.15-5.35-.29-7.66-1.31-2.31-1.02-4.22-2.62-5.73-4.82-1.51-2.2-2.49-4.62-2.93-7.28-.44-2.65-.89-7.31-1.35-13.98l-.76-11.08c-.45-6.51-.64-11.12-.58-13.84.06-2.72.67-5.23,1.82-7.54,1.15-2.31,2.79-4.12,4.93-5.44,2.14-1.32,4.68-2.05,7.63-2.21,2.8-.15,5.35.29,7.66,1.31,2.31,1.02,4.22,2.62,5.73,4.82,1.51,2.2,2.49,4.62,2.93,7.28.44,2.65.89,7.32,1.35,13.98l.76,11.08Zm-15.86-26.33c-.08-.2-.29-.7-.79-.98-.27-.15-.59-.21-.96-.19-.28.01-.53.08-.76.2,0,0-.5.27-.81.9-.99,2.09,1.96,6.8,1.96,6.8,4.77,7.63-1.24,22.03-.91,30.63,0,0,.05,1.26,1.72,5.81.08.23.27.71.75,1,.29.18.65.26,1.07.23.37-.02.69-.12.94-.3.52-.36.66-.96.73-1.32.32-1.6.48-2.4.22-3.67-.81-4.04,1.79-21.63,0-31.5-.66-3.65-1.37-3.18-3.18-7.61Z"/>
      <path class="cls-19" d="m1067.59,722.13c-8.46,1.46-16.91,2.92-25.37,4.38,6.34,12.25,12.68,24.5,19.03,36.75-6.34-1.46-12.68-2.92-19.03-4.38.58-9.43-1.16-16.51-2.72-21-2.32-6.68-4.27-7.65-5.44-7.88-3.19-.62-6.94,3.11-9.31,5.47-1.58,1.57-2.68,3.04-3.39,4.07l-5.32,6.42c-6.68-.36-13.35-.72-20.03-1.08,10.57-7,21.14-14,31.71-21-5.74-10.79-11.48-21.59-17.22-32.38h12.68c2.13,5.6,5.28,12.27,9.97,19.25,2.71,4.04,5.5,7.52,8.15,10.5,6.64-2.04,13.29-4.08,19.93-6.13,2.11,2.33,4.23,4.67,6.34,7Z"/>
    </g>
  </g>
  <g id="box">
    <path class="cls-9" d="m1134,149.4c112.51-2.95,225.03-5.89,337.54-8.84-3.54,111.5-7.09,223.01-10.63,334.51-65.49,59.53-153.12,78.22-219.27,47.97-40.6-18.57-62.71-50.83-73.09-69.43-11.52-101.4-23.03-202.81-34.55-304.21Z"/>
    <path class="cls-31" d="m1292.13,247.86c-51.12.95-76.69,1.43-95.68,10.1-9.04,4.13-19.5,10.24-29.24,6.31-5.71-2.3-9.41-7.35-18.6-37.87-12.22-40.56-11.52-50.84-10.63-56.8,1.81-12.14,6.02-21.65,9.3-27.77l35.88-21.46,42.52-12.62,53.16-8.84c18.52-2.22,42.06-3.51,69.1-1.26,27.02,2.24,49.95,7.39,67.77,12.62,7,1.65,17.14,4.84,27.91,11.36,9.88,5.99,16.81,12.66,21.26,17.67,2.33,7.19,5.1,18.13,5.32,31.56.44,27.33-9.53,74.74-43.85,85.84-5.87,1.9-19.56,5.03-39.87-2.52-36.45-5.58-68.54-6.79-94.35-6.31Z"/>
    <path class="cls-11" d="m1161.34,192.7c-2.21,3.81-7.22,13.88-3.16,26.07.82,2.46,6.67,20.04,21.96,22.95,13.44,2.56,18.59-9.06,44.73-14.33,12.32-2.48,14.99-.67,43.19-2.12,17.05-.88,30.86-2.31,39.86-3.37,8.73-3.41,10.14-5.76,9.9-7.26-1.42-8.55-58.55,1.96-101.6-19.08-6.05-2.96-17.95-9.38-33.34-8.8-9.3.35-16.68,3.37-21.55,5.95Z"/>
    <path class="cls-5" d="m1195.93,221.89c-2.57-12.66-4.57-14.01-19.04-15.98-14.47-1.96,4.24,21.22,4.24,21.22.2.13,4.74,2.98,9.51,1.65,3.44-.96,5.55-3.69,5.29-6.89Z"/>
    <path class="cls-31" d="m1137.32,141.2c-6.22,10.95-12.44,21.9-18.66,32.84h0c-1.11,31.19-1.77,62.95-1.94,95.28-.06,11.01-.06,21.95,0,32.82,2.04,20.12,5.03,41.66,9.3,64.38,3.42,18.17,7.33,35.34,11.53,51.44,1.91,5.92,4.43,13.15,7.69,21.31,2.56,6.41,5.06,12.12,7.36,17.08,4.86,10.47,10.31,22.07,19.93,36.1,4.99,7.28,7.44,10.95,10.63,14.18,9.08,9.19,18.53,13.07,33.22,18.93,19.56,7.81,35.34,10.61,39.87,11.36,13.25,2.21,24.68,2.64,33.22,2.52,1.04-4.66,1.96-9.72,2.66-15.15,1.06-8.28,1.4-15.91,1.33-22.72-1.22.05-3.07.1-5.32,0-8.22-.35-13.93-2.26-22.59-5.05-3.92-1.26-10.64-3.41-19.93-6.31-10.79-6.35-19.92-10.21-26.58-12.62-5.17-1.88-10.13-3.35-11.96-7.57-2.09-4.83,1.13-10.34,2.66-12.62,3.62-2.11,10.66-6.92,13.29-15.15,2.3-7.21.13-13.61-1.33-17.67-14.79-41.33-21.99-62.06-41.2-70.69-4.61-2.07-10.85-3.91-15.95-10.1-2.71-3.29-5.25-8-6.64-20.2-2.35-20.56-3.84-35.08,5.32-45.44,6.35-7.19,17.03-10.78,15.95-16.41-.22-1.16-.87-2.02-1.33-2.52-4.5-1.46-10.81-4.08-17.28-8.84-4.73-3.48-8.19-7.11-10.63-10.1-2.26-4.15-4.63-9.22-6.64-15.15,0,0-2.74-8.07-3.99-16.41-3.91-26.18,16.43-60.86,7.31-67.53-1.34-.98-3.91-1.79-9.3,0Z"/>
    <path class="cls-32" d="m1296.12,247.86c-58.39-4.42-102.09,1.07-115.61,10.1-10.27,6.86-15.08,15.56-15.08,15.56-2.4,4.18-3.62,9.11-4.85,17.26-2.66,17.67,1.33,47.97,1.33,47.97,1.04,2.86,2.94,6.76,6.64,10.1,6.7,6.04,14.1,5.56,19.93,7.57,3.49,1.2,9.64,4.4,22.59,37.87,18.07,46.69,11.6,54.61,9.3,56.8-2.87,2.74-6.95,3.93-7.9,8.08-1.15,4.97,3.01,10.3,7.9,14.64,19.93,17.67,70.43,29.03,70.43,29.03l1.33-16.41c-8.48-2.27-15.37-3.96-19.93-5.05-16.96-4.05-21.36-4.47-26.58-8.84-2.92-2.44-2.52-3.13-9.3-10.1-4.31-4.43-8.08-7.86-10.63-10.1,2.37-3.37,5.52-8.48,7.97-15.15,8.14-22.11,1.58-42-1.33-49.23-3.14-7.82-8.27-20.59-19.93-27.77-4.02-2.48-7.88-5.18-11.96-7.57-7.14-4.19-12.2-6.57-13.29-11.36-.41-1.78-.11-3.2,0-3.79,2.27-12.57-14.38-31.81-11.96-51.75.15-1.26,2.08-15.4,13.29-22.72,4.49-2.93,8.7-3.62,19.93-5.05,18.27-2.32,27.41-3.48,33.22-3.79,13.83-.72,32.7-1.38,55.81-1.26"/>
    <path class="cls-31" d="m1467.61,139.78c15.24.64,28.24,8.28,33.16,19.72,3.09,7.2,2.18,14,1.33,17.67-3.54,10.68-7.94,26.23-10.63,45.44-1.76,12.58-2.13,22.01-2.66,36.61-.51,14.2-.82,33.55,0,56.8-2.35,20.2-3.75,36.73-4.6,48.21-1.44,19.51.03,55.87-10.02,67.92-.78.93-3.52,4-5.32,8.84-1.82,4.91-1.69,9.02-1.57,14.49.23,10.83.35,16.24.24,18.33-1.14,21.52-35.62,38.25-47.84,44.18-7.64,3.71-14.37,6.09-18.6,7.57-15.22,5.34-27.85,7.75-34.55,8.84-12.41,2.02-9.67.3-23.56,2.45-16.18,2.5-23.81,5.43-37.57,5.12-5.8-.13-10.47-.79-13.29-1.26,2.22-6.98,2.67-12.58,2.66-16.41,0-3.81-.46-7.01,0-12.62.31-3.79.89-6.85,1.33-8.84,4.36.17,10.89.1,18.6-1.26,7.56-1.34,11.87-3.15,17.28-4.96,24.2-8.1,31.07-2.88,43.85-11.45,4.02-2.69,11.41-7.79,11.96-15.15.51-6.86-5.18-12.01-7.97-15.15-17.09-19.17-12.48-59.93,5.32-84.57,4.57-6.34,12.38-17.15,26.58-22.72,12.61-4.95,18.96-1.34,26.58-7.57,10.99-9,9.76-26.38,9.3-32.82-.41-5.84-1.12-15.81-7.97-25.25-6.99-9.62-17.8-15.15-16.05-21.55.33-1.2.99-2.06,1.43-2.55,4.95-1.54,11.89-4.26,18.97-9.13,5.18-3.56,8.95-7.25,11.59-10.28,2.43-4.19,4.97-9.3,7.09-15.26,2.19-6.14,3.43-11.74,4.13-16.48.71-16,1.41-32,2.12-48.01-.44-6.31-.88-12.61-1.32-18.92Z"/>
    <path class="cls-21" d="m1498.11,207.47c4.82-.3,10.2,26.82,10.63,29.03,3.96,20.32,4.19,40.41,1.33,63.11,0,0-2.29,18.19-15.95,70.69,0,0-6.99,20.25-5.73,40.63.17,2.71.54,6.32-1.25,10.51-2.44,5.72-8.52,11.63-11.63,10.71-5.29-1.56-1.97-22.84,6.64-88.36,5.55-42.26,8.32-63.48,7.97-68.16-.06-.76-1.74-23.2,2.66-51.75,1.81-11.74,3.38-16.29,5.32-16.41Z"/>
    <path class="cls-21" d="m1118.05,215.04c-2.04-1.25-5.47.62-6.64,1.26-13.39,7.29-14.51,58.37-14.62,75.74.86,11.99,2.15,24.64,3.99,37.87,2.23,16.06,5.02,31.13,8.12,45.11h0c3.49,7.3,7.71,40.63,7.71,40.63,3.17,22.53,30.87,39.23,34.66,36.69,2.61-1.75-5.55-13.08-13.29-34.08-5.15-13.99-7.83-32.77-12.98-69.75-6.59-47.36-7.85-68.79-8.28-79.2-.82-19.69-1.22-29.53,0-35.34,1.62-7.69,4.73-16.85,1.33-18.93Z"/>
    <path class="cls-11" d="m1199.75,427.14c2.25-5.97,5.06-16.42,2.32-28.63-1.34-5.97-4.44-19.76-15.74-24.19-1.13-.44-8.59-3.24-14.46.33-6.49,3.94-7.97,13.79-5.01,20.35,4.01,8.89,13.41,5.62,18.13,14.44,3.11,5.82.68,10.34,4.7,27.44.48,2.04,1.11,4.52,2.39,4.68,2.37.3,5.43-7.6,7.68-14.43Z"/>
    <path class="cls-11" d="m1431.68,355.3c-10.03,3.47-18.32,6.34-26.28,14.18-4.46,4.39-14.76,14.54-12.31,25.92.25,1.14,1.98,8.57,8.38,11.2,6.95,2.86,15.86-2.43,20.56-7.43,8.21-8.73,2.83-16.06,11.8-24.51,3.24-3.05,6.32-6.25,9.49-9.36,1.15-1.13,3.33-3.26,4.8-6.67.92-2.14,1.86-4.31.99-5.57-2.13-3.06-13.89,1.02-17.42,2.24Z"/>
    <path class="cls-5" d="m1110.71,236.64c-3.46,12.4-6.59,28.37-7.03,47.06-.31,13,.75,24.6,2.3,34.4,1.27,9.85,3.27,23.03,6.56,38.5,2.36,11.12,4.53,19.44,8.29,33.76,2.7,10.27,6.28,23.49,10.78,38.92-6.93-26.65-13.19-55.13-18.35-85.34-2.26-13.26-4.21-26.24-5.88-38.92-1.06-5.77-1.87-12.07-2.24-18.86-1.07-19.69,1.94-36.61,5.58-49.53Z"/>
    <path class="cls-11" d="m1500.77,221.35c.07,0,2.17,20.48,5.95,41.93.46,2.62,1.21,6.76,1.45,12.43.43,10.29-1.15,18-2.09,22.64-2.73,13.45-5.1,26.97-7.97,40.39-5.74,26.76-4.62,23.88-6.84,32.62-5.11,20.09-12.27,40.27-13.43,39.97-1.82-.46,8.76-51.27,17.62-85.21,1.41-5.38,5.47-20.7,7.72-41.21.47-4.33,1.16-10.76,1.38-19.01.67-25.6-3.85-44.54-3.78-44.55Z"/>
    <path class="cls-32" d="m1298.11,248.49c12.49.09,24.98.18,37.48.27,25.16.1,39.9,3.1,48.9,6.04,2.95.96,12.33,4.23,25.25,5.05,5.02.32,9.19.18,11.96,0,.12,1.23.43,3.05,1.33,5.05,2.01,4.45,5.66,6.88,6.64,7.57,3.59,2.54,8.8,8.3,16.06,22.29,1.43,5.55,2.84,14.16,1.21,24.41-.88,5.52-2.43,10.19-3.99,13.89-.61,1.76-1.74,4.18-3.99,6.31-5.53,5.24-13.84,4.91-17.28,5.05-12.45.51-22.28,9.83-33.22,20.2-17.01,16.12-20.68,54.35-4.82,94.54,3.84,5.45,3.7,9.73,3.49,11.5-1.13,9.42-12.88,18.03-29.24,18.93-3.46.86-7,1.71-10.63,2.52-4.07.91-8.06,1.75-11.96,2.52-11.07,2.52-22.15,5.05-33.22,7.57-2.21-.42-4.43-.84-6.64-1.26v-13.89h13.29c5.54-.34,11.07-.68,16.61-1.02,5.98-.92,11.96-1.85,17.94-2.77,5.76-.84,11.52-1.68,17.28-2.52l11.96-7.57c3.77-3.53,4.92-6.71,5.32-8.84,1.11-6-2.38-11.26-13.29-26.51h0c-2.82-7.94-6.27-21.45-3.99-37.87.48-3.45,3.56-23.91,17.28-39.13,1.78-1.97,7.49-8.03,15.95-12.62,4.41-2.4,7.67-3.36,9.3-3.79,4.19-1.09,5.41-.64,9.3-1.26,2.06-.33,14.55-2.32,18.6-10.1.57-1.09.47-1.34,1.33-6.31,2.45-14.21,3.72-15.02,3.99-21.46.15-3.57-.02-8.41-1.33-13.89-1.16-4.86-2.4-10.03-6.64-15.15-3.83-4.62-8.22-6.92-11.53-8.6-6.28-3.2-11.61-4.2-17.7-5.28-17.71-3.16-26.56-4.73-29.24-5.05-3.7-.44-12.32-1.4-35.88-2.52-8.8-.42-20.56-.91-34.55-1.26-.44-1.68-.89-3.37-1.33-5.05Z"/>
    <path class="cls-5" d="m1303.92,528.77c.03-.32,21.17,4.84,50.67.59,21.66-3.12,40.3-10.24,53.16-15.15,7.22-2.76,11.59-4.74,16.98-7.2,17.91-8.18,26.95-12.39,31.11-18.51,8.73-12.83,2.52-29.83,2.41-29.83-.1,0,3.2,11.36-2.66,21.46-3.81,6.57-9.64,9.41-18.6,13.89-41.95,20.91-45.17,23.83-62.58,29.33-7,2.21-11.04,3.48-17.15,4.76-29.54,6.16-53.36,1.02-53.33.67Z"/>
    <path class="cls-32" d="m1327.35,348.22c.37,17.43,5.54,24.59,10.63,27.77,3.16,1.98,6.46,2.52,9.3,6.31,3.25,4.33,4.87,11.5,1.33,16.41-1.94,2.68-4.78,3.8-7.97,5.05-3.52,1.38-8.65,2.51-9.3,1.26-.32-.62.46-1.64,1.33-2.52-.05-.69-.38-4.67-3.99-7.57-3.34-2.69-7.15-2.57-7.97-2.52-1.33.42-2.66.84-3.99,1.26-1.7,1.38-3.7,3.5-3.99,6.31-.19,1.9.55,2.63,0,3.79-1.39,2.89-8.91,4.12-11.96,1.26-2.44-2.29-.03-5.35-2.66-8.84-2.07-2.75-5.95-4.01-9.3-3.79-4.26.29-8.21,3.02-9.3,6.31-.2.6-.74,2.24,0,3.79.86,1.78,2.76,2.07,2.66,2.52-.21.94-9.07,2.53-14.62-2.52-4.15-3.79-4.03-9.1-3.99-10.1.99-6.25,3.3-13.74,9.3-16.41,5.2-2.32,8.69.99,11.96-1.26,6.15-4.24-2.5-18.52,0-37.87.99-7.63,3.41-13.71,5.32-17.67,1.36-2.7,3.47-5.52,6.64-6.31,7.54-1.89,16.04,8.93,19.93,13.89,3.33,4.24,7.91,11.28,10.63,21.46Z"/>
    <path class="cls-32" d="m1341.3,324.86c2.5-2.87,11.6-12.56,27.1-15.15,9.39-1.57,17.16,1.06,32.7,6.31,1.81.61,3.93,1.38,3.99,2.52.15,3.14-15.5,6.37-23.92,7.57-8.87,1.26-22.49,2.1-39.87-1.26Z"/>
    <path class="cls-23" d="m1348.38,311.68c11.62-8.53,21.18-10.35,28.14-10.17,6,.15,10.43,1.79,30.56,8.84h0c-3.64-2.27-19.1-11.37-38.54-7.57-9.41,1.84-16.23,6.01-20.16,8.91Z"/>
    <path class="cls-23" d="m1356.59,338.12c4.58.38,8.19.88,10.63,1.26,0,0,9.15,1.44,13.29,0,.37-.13.72-.28.72-.28.28-.13.5-.26.99-.52.92-.48,3.29-1.58,3.6-1.73,1.23-.55,5.65-2.89,18.6-10.1-.92.26-2.31.68-3.99,1.26-10.44,3.63-15.32,7.93-19.93,10.1-4.55,2.14-11.91,3.63-23.92,0Z"/>
    <path class="cls-23" d="m1212.4,307.74s26.25-2.87,32.5-1.49c6.24,1.39,9.36,3.47,9.36,3.47l-9.36-2.77-32.5.79Z"/>
    <path class="cls-4" d="m1223.03,355.16c-.08.11,2.54,1.65,7.97,6.31,3.04,2.61,4.59,3.94,5.68,5.4,2.93,3.89,3.34,7.97,3.72,9.78,5.01,24.23,6.82,30.87,7.34,30.93.85.1-1.62-17.48-5.46-31.07-.67-2.35-1.13-4.44-2.46-6.96-5.38-10.2-16.63-14.61-16.79-14.39Z"/>
    <path class="cls-20" d="m1268.21,450.46c7.97,1.68,15.95,3.37,23.92,5.05h21.26c6.03-1.31,12.23-2.58,18.6-3.79,6.1-1.16,12.09-2.2,17.94-3.16,3.99.42,7.97.84,11.96,1.26.44.42.89.84,1.33,1.26-2.8.67-6.9,1.93-11.3,4.42-6.98,3.95-10.47,9.17-11.96,10.1-19.3,12.05-40.91,8.88-47.84,7.57-7.41-2.46-16.11-6.05-25.25-11.36-5.02-2.92-9.44-5.93-13.29-8.84,4.87-.84,9.75-1.68,14.62-2.52Z"/>
    <path class="cls-20" d="m1251.6,447.94c6.2-3.17,11.5-5.78,15.56-7.76,9.65-4.68,11.86-5.52,15-6.13,3.42-.67,9.51-1.78,16.15.78,3.09,1.19,5.34,2.81,6.77,4.01,7.44-5.27,13.03-5.65,16.25-5.35.74.07,1.94.23,10.84,2.67,4,1.1,7.28,2.04,9.48,2.67,5.42.89,10.84,1.78,16.25,2.67,1.07,0,1.32.05,1.33.11.04.38-11.73,2.07-23.92,2.52-5.39.2-9.95.13-13.29,0-7.27,3.74-12.99,4.29-16.94,4.06-2.43-.14-3.64-.55-10.96-1.53,0,0-5.42-.73-10.63-1.26,0,0-2.01-.16-3.88-.24-8.83-.41-26.8,2.56-28.02,2.77Z"/>
    <path class="cls-23" d="m1277.58,446.25c11.65.65,20.98,1.21,28.5,1.69,2.24.4,5.52.72,9.3,0,3.49-.66,4.88-1.77,7.97-2.52,2.4-.59,4.22-.63,11.96,0,5.07.41,20.14,1.71,24.36-1.26.08-.06.87-.62.86-.64-.04-.06-5.92,3.88-5.92,3.88l-40.55,6.86h-22.59c-20.67-5.16-32.26-4.05-38.54-2.52-1.31.32-4.06,1.31-4.16,1.09-.16-.37,7.17-4.55,16.12-6.14,4.76-.84,8.34-.67,12.69-.43Z"/>
    <path class="cls-7" d="m1291.47,447.31c-1.09,3.2-.64,4.48,0,5.05,0,0,.75.67,6.64,0,0,0,.36,0,.6,0,.18,0,.43,0,.73,0,.15-.33,1.06-2.43,0-3.79-.7-.9-1.93-1.04-3.99-1.26-1.66-.18-3.04-.1-3.99,0Z"/>
    <path class="cls-7" d="m1283.3,447c-.77,3.4-.45,4.75,0,5.36,0,0,.53.71,4.72,0h0s.26,0,.42,0c.13,0,.3,0,.52,0,.11-.35.75-2.57,0-4.02-.5-.96-1.37-1.1-2.83-1.34-1.18-.19-2.16-.11-2.83,0Z"/>
    <path class="cls-7" d="m1276.49,446.08c-.5,2.38-.29,3.33,0,3.75,0,0,.35.5,3.08,0h0s.17,0,.28,0c.08,0,.2,0,.34,0,.07-.24.49-1.8,0-2.82-.33-.67-.89-.77-1.85-.94-.77-.14-1.41-.08-1.85,0Z"/>
    <path class="cls-7" d="m1272.9,446.69c.9.13,1.44.21,1.74.74.46.8.06,2.03,0,2.22-.13,0-.24,0-.32,0-.1,0-.26,0-.26,0h0c-2.58.39-2.91,0-2.91,0-.28-.33-.47-1.09,0-2.97.41-.06,1.02-.11,1.74,0Z"/>
    <path class="cls-7" d="m1325.42,445.32c1.59,3.03,1.7,4.39,1.49,5.06,0,0-.25.79-3.98,1.06,0,0-.22.05-.36.09-.11.03-.26.07-.44.12-.19-.3-1.35-2.26-1.12-3.79.16-1.02.85-1.35,2.01-1.9.94-.45,1.79-.59,2.39-.63Z"/>
    <path class="cls-7" d="m1293.46,454.88c-.82,0-1.64,0-2.46,0-.4-.86-.42-.98-.42-.98.15-.18.23-.28.23-.28h0c1.13.04,1.33,0,1.33,0,.52-.11.7-.34.9-.23.12.07.14.19.22.57.08.37.15.68.21.92Z"/>
    <path class="cls-7" d="m1296.65,454.86c-.82,0-1.64,0-2.46,0-.4-.86-.42-.98-.42-.98.15-.18.23-.28.23-.28h0c1.13.04,1.33,0,1.33,0,.52-.11.7-.34.9-.23.12.07.14.19.22.57.08.37.15.68.21.92Z"/>
    <path class="cls-7" d="m1299.12,454.95c.33-.03.69-.05,1.07-.06.44,0,.84.01,1.21.05l.15-1.23s-.84.04-1.14,0c-.01,0-.18-.02-.18-.02-.69-.15-.9-.08-.96.02-.07.12.07.25.07.55,0,.28-.12.52-.22.68Z"/>
    <path class="cls-7" d="m1306.61,454.82c.42-.05.87-.08,1.34-.09.55-.01,1.05,0,1.51.04l.21-1.57s-1.05.06-1.42.02c-.02,0-.23-.02-.23-.02-.86-.18-1.12-.08-1.2.05-.09.15.08.32.08.7,0,.35-.16.66-.29.87Z"/>
    <path class="cls-7" d="m1313.74,454.66c-.86-.06-1.72-.12-2.58-.18-.48-.98-.51-1.11-.51-1.11.14-.19.21-.29.21-.29h0c1.19.13,1.39.09,1.39.09.53-.09.71-.33.93-.19.13.08.16.22.27.65.11.41.21.76.29,1.03Z"/>
    <path class="cls-7" d="m1318.94,454.06c-.8.16-1.61.32-2.41.49-.58-.76-.63-.87-.63-.87.11-.21.16-.32.16-.32h0c1.11-.18,1.3-.27,1.3-.27.48-.21.61-.47.83-.4.13.04.18.16.34.52.16.34.3.63.41.85Z"/>
    <path class="cls-7" d="m1325.04,452.66c-.68.15-1.36.3-2.04.44-.48-.64-.52-.73-.52-.73.09-.18.14-.27.14-.27h0c.94-.17,1.1-.24,1.1-.24.41-.19.52-.41.71-.35.11.03.15.13.28.43.13.29.24.53.33.71Z"/>
    <path class="cls-7" d="m1328.53,444.81c-.5,2.38-.29,3.33,0,3.75,0,0,.35.5,3.08,0h0s.17,0,.28,0c.08,0,.2,0,.34,0,.07-.24.49-1.8,0-2.82-.33-.67-.89-.77-1.85-.94-.77-.14-1.41-.08-1.85,0Z"/>
    <path class="cls-7" d="m1340.17,444.92c-.33,1.51-.19,2.11,0,2.38,0,0,.23.31,2.02,0h0s.11,0,.18,0c.05,0,.13,0,.22,0,.04-.15.32-1.14,0-1.79-.21-.43-.59-.49-1.21-.6-.5-.09-.92-.05-1.21,0Z"/>
    <path class="cls-32" d="m1299.48,374.58c4.33-1.55,8.01-2.14,10.6-2.38,2.13-.2,3.49-.32,5.32,0,.85.15,7.83,1.45,9.3,6.31.25.82.45,2.1,0,3.79"/>
    <path class="cls-32" d="m1266.22,328.02c1.46-2.65-5.63-10.36-14.5-13.52-.98-.35-4.81-1.65-12.24-1.56-1.88.02-3.84.14-5.8.32-10.26.98-20.6,3.99-20.61,7.18,0,2.89,8.11,5.57,13.29,6.31,3.26.47,6.05.27,7.97,0,2.69.21,8.47.66,15.95,1.26,12.88,1.03,15.25,1.26,15.95,0Z"/>
    <path class="cls-23" d="m1205.08,327.19c-.1,2.67,6.66,5.87,6.66,5.87,5.92,2.8,11.31,3.38,11.34,3.26.03-.12-4.81-.21-10.01-3.26-4.03-2.36-8-6.33-7.97-6.31h0s-.02.44-.02.44Z"/>
    <path class="cls-12" d="m1272.2,294.57l-43.65-32.65s-32.1,7.4-37.42,12.45-2.66,16.41-2.66,16.41l30.56-10.1,39.87,11.36,13.29,3.79"/>
    <path class="cls-12" d="m1332,288.26c1.19-3.45,5.8-3.9,11.96-6.31,3.83-1.5,10.08-5.63,22.59-13.89,3.77-2.49,7.05-4.74,11.96-5.05,3.37-.21,6.17.58,7.97,1.26,1.68,1.18,4.43,3.03,7.97,5.05,11.66,6.63,16.64,6.35,23.92,11.36,7.93,5.46,13.32,13.58,11.96,15.15-1.3,1.49-8.23-3.54-19.93-7.57-10.52-3.63-19.92-4.73-26.58-5.05l-31.89,3.79c-6.2,2.51-12.4,5.02-18.6,7.53-1.05-1.69-2.09-4.04-1.33-6.27Z"/>
    <path class="cls-13" d="m1244.29,324.86c4.99-.45,8.15-3.6,7.97-6.31-.13-1.98-2.02-3.36-2.66-3.79-.65-.23-1.59-.54-2.76-.81-2.87-.68-7.63-1.8-11.32.48-.78.48-2.25,1.39-2.65,3.02-.51,2.05.85,4.46,3.44,6.14,2.66.42,5.32.84,7.97,1.26Z"/>
    <path class="cls-4" d="m1237.65,316.03c-.67,1.95-.24,3.25,0,3.79,1.54,3.54,7.97,4.85,10.63,2.52.47-.41,1.08-1.16,1.33-2.52,0-.55-.1-1.49-.58-2.52-.16-.34-.74-1.52-2.08-2.52-.21-.16-1.31-.97-2.66-1.26-3.42-.74-6.48,2.35-6.64,2.52Z"/>
    <path class="cls-7" d="m1244.29,317.29s1.33,2.52,1.33,0-1.33,0-1.33,0Z"/>
    <path class="cls-13" d="m1369.76,325.61c4.71-1.63,6.94-5.44,6.05-8.01-.65-1.89-2.85-2.77-3.57-3.03-.69-.07-1.68-.14-2.88-.13-2.95.03-7.86.08-10.83,3.17-.63.65-1.81,1.88-1.77,3.56.05,2.1,2.01,4.11,4.96,5.13,2.68-.23,5.37-.46,8.05-.68Z"/>
    <path class="cls-4" d="m1360.7,318.43c-.67,1.95-.24,3.25,0,3.79,1.54,3.54,7.97,4.85,10.63,2.52.47-.41,1.08-1.16,1.33-2.52,0-.55-.1-1.49-.58-2.52-.16-.34-.74-1.52-2.08-2.52-.21-.16-1.31-.97-2.66-1.26-3.42-.74-6.48,2.35-6.64,2.52Z"/>
    <path class="cls-7" d="m1364.36,322.38s1.33,2.52,1.33,0-1.33,0-1.33,0Z"/>
    <path class="cls-4" d="m1382.4,352.7c.03.09-1.94.92-6.3,3.67-2.44,1.54-3.68,2.33-4.65,3.26-2.6,2.47-3.6,5.33-4.17,6.58-7.61,16.73-9.98,21.26-10.33,21.25-.57-.02,4.2-12.27,9.14-21.55.86-1.61,1.53-3.04,2.84-4.7,5.32-6.7,13.39-8.69,13.46-8.52Z"/>
  </g>
</svg>