<svg width="52" height="50" viewBox="0 0 52 50" fill="none" xmlns="http://www.w3.org/2000/svg">
<path fill-rule="evenodd" clip-rule="evenodd" d="M9.98355 32.4993C9.59099 32.1264 9.36888 31.6189 9.36605 31.0886C9.36323 30.5583 9.57992 30.0485 9.96848 29.6714L24.477 15.5938C24.8657 15.2168 25.3944 15.0034 25.9468 15.0004C26.4992 14.9975 27.0301 15.2053 27.4228 15.5781L42.0805 29.5002C42.462 29.8754 42.6747 30.3795 42.6728 30.9039C42.6708 31.4283 42.4544 31.9311 42.0701 32.304C41.6858 32.6768 41.1644 32.8899 40.6182 32.8974C40.072 32.9049 39.5447 32.7061 39.1498 32.3439L25.9725 19.8279L12.9293 32.4836C12.5407 32.8606 12.012 33.0741 11.4596 33.077C10.9072 33.08 10.3762 32.8722 9.98355 32.4993Z" fill="#D00000"/>
</svg>
