<?xml version="1.0" encoding="UTF-8"?>
<svg id="Lag_2" data-name="Lag 2" xmlns="http://www.w3.org/2000/svg" viewBox="0 0 1189.78 147.65">
  <defs>
    <style>
      .cls-1 {
        fill: red;
      }

      .cls-1, .cls-2 {
        stroke: #d00000;
      }

      .cls-1, .cls-2, .cls-3, .cls-4 {
        stroke-miterlimit: 10;
      }

      .cls-5, .cls-6, .cls-7 {
        stroke-width: 0px;
      }

      .cls-6 {
        fill: #0f0f1c;
      }

      .cls-7 {
        fill: #fff;
      }

      .cls-2 {
        fill: #fff1b4;
      }

      .cls-3 {
        fill: #969ea1;
        stroke: #333;
      }

      .cls-4 {
        fill: #c8d3d6;
        stroke: #000;
      }
    </style>
  </defs>
  <g id="bild">
    <path class="cls-5" d="m10.28,101.04S-2.73,126.87.52,135.82c3.25,8.95,4.07,13.63,24.81,11.19,20.75-2.44,37.02-9.36,35.59-17.69-1.42-8.34-2.63-20.14-2.63-20.14v-35.38c.19-6.78.03-12.44-.18-16.55-.75-14.62-2.55-19.11-5.32-21.28-2.34-1.84-5.49-3.25-5.49-3.25-1.85-.83-3.48-1.33-4.68-1.63-2.18.4-5.44,1.31-8.54,3.66-3.92,2.97-6.01,7.04-8.14,13.73-3.06,9.61-1.73,10.55-4.27,20.44-3.09,12.03-8.81,25.26-11.05,31.22,0,0-.34.91-.34.91h0Z"/>
    <path class="cls-6" d="m56.66,68.9c.18-3.88.1-7.04,0-9.15-.66-14.07-3.97-18.93-4.85-20.15-1.93-2.68-3.48-3.49-3.86-3.69-5.13-2.57-11.17.96-12.03,1.47-5.64,3.3-7.34,9.09-7.73,10.58-.27,3.25-.54,6.51-.81,9.76-.96,2.85-3.77,11.19-4.73,14.04-4.26,12.68-8.52,25.35-12.76,38.03-7.39,7.26-10.88,20.82-3.66,25.02,8.75,5.08,30.1,1.22,30.1,1.22,0,0,11.84.12,17.46-8.04,2.37-3.44,2.71-7,2.88-9.45.94-13.09-.09-26.58-1.22-36.41"/>
    <path class="cls-5" d="m19.34,71.45c9.15.99,15.69.5,20.14-.2,1.25-.2,5.11-.06,12.81.2,1.26.04,3.45.15,4.84,1.72.92,1.04,1.6,2.85.86,3.98-.8,1.22-3.21,1.61-5.49.2-5.76-1.07-10.42-1.26-13.63-1.22-7.48.08-10.37.41-10.37.41-5.16.58-7.87,1.46-9.15,0-1.07-1.21-.59-3.39,0-5.08Z"/>
    <path class="cls-7" d="m22.59,75.52s27.66-3.27,31.53-.82-6.71-2.23-31.53.82Z"/>
    <path class="cls-5" d="m12.12,100.43c5.49.13,13.7.04,23.59-1.21,13.54-1.7,19.5-4.22,22.59-.82,3.3,3.63-1.37,8.86,1.33,22.06.8,3.91,1.54,5.07.9,7.03-1.85,5.65-11.75,7.54-20.53,8.21-4.24.94-31.27,6.7-36.11-2.77-.55-1.08-.67-2.08-.73-3.36-.45-10.93,4.79-22.01,8.96-29.13Z"/>
    <path class="cls-7" d="m15.99,137.15c7.55,2.8,12.79,2.55,16.26,1.72,1.73-.41,4.98-1.44,9.98-2.09,2.37-.31,4.34-.43,5.66-.48-.05-.03-.13-.07-.23-.13-4.04-2.07-9.41,1.1-10.94,1.88-3.44,1.76-9.46,2.7-20.73-1.14"/>
    <path class="cls-7" d="m54.18,127.81c-8,4.47-14.3,5.08-8,4.47s8-4.47,8-4.47Z"/>
    <path class="cls-5" d="m111.37,94.33s7.86,21.91,5.86,31.27c-1.42,6.61-3.96,8.98-4.62,9.56-3.45,3.03-8.66,3.23-18.94,3.51-4.59.12-7.8.2-12.2-.41-7.57-1.04-11.83-1.62-15.05-4.47-4.59-4.08-4.39-10.84-4.47-24.2-.04-7.18.75-11.56,1.83-21.15.74-6.61,1.61-15.01,2.44-24.81-.06-2.29-.11-5.59,0-9.56.12-4.39.21-7.94.81-12.41,1.01-7.49,1.71-12.18,5.38-15.91,1.68-1.7,3.47-2.69,4.71-3.25,1.59-.83,2.99-1.33,4.01-1.63,1.87.4,4.66,1.31,7.32,3.66,3.36,2.97,5.15,7.04,6.97,13.73.76,2.79,1.21,4.84,1.51,6.6.68,3.97.78,5.97,1.11,8.33.71,5.05,2.22,8.52,3.56,11.87,3.81,9.56,6.5,19.53,9.76,29.29Z"/>
    <path class="cls-6" d="m67.81,62.32c.05-2.12.13-5.18.55-9.14,0,0,1.09-13.76,5.89-19.84,2.02-2.56,3.56-3.28,3.95-3.45,5.1-2.27,10.71,1.61,11.51,2.17,5.23,3.62,6.53,9.5,6.81,11.01.07,3.26.13,6.53.2,9.79.75,2.9,2.96,11.39,3.71,14.29,3.35,12.9,6.68,25.8,10.01,38.7,6.68,7.67,9.23,21.41,2.02,25.18-8.74,4.57-29.08-.53-29.08-.53,0,0-11.41-.57-16.34-9.05-1.09-1.88-1.85-4.09-2.21-9.6-1.11-16.79,4.2-21.38,3.37-36.27-.14-2.46-.53-6.78-.38-13.27Z"/>
    <path class="cls-5" d="m111.21,93.86c-5.67.13-14.15.04-24.37-1.21-13.99-1.7-20.15-4.22-23.34-.82-3.41,3.63,1.42,8.86-1.37,22.06-.83,3.91-1.59,5.07-.93,7.03,1.91,5.65,12.14,7.54,21.21,8.21,4.38.94,32.31,6.7,37.31-2.77.57-1.08.7-2.08.75-3.36.47-10.93-4.95-22.01-9.26-29.13Z"/>
    <path class="cls-7" d="m72.78,127.43c7.55,2.8,12.79,2.55,16.26,1.72,1.73-.41,4.98-1.44,9.98-2.09,2.37-.31,4.34-.43,5.66-.48-.05-.03-.13-.07-.23-.13-4.04-2.07-9.41,1.1-10.94,1.88-3.44,1.76-9.46,2.7-20.73-1.14"/>
    <path class="cls-7" d="m118.39,117.5c-8,4.47-14.3,5.08-8,4.47s8-4.47,8-4.47Z"/>
    <path class="cls-5" d="m65.3,63c9.15.99,15.69.5,20.14-.2,1.25-.2,5.11-.06,12.81.2,1.26.04,3.45.15,4.84,1.72.92,1.04,1.6,2.85.86,3.98-.8,1.22-3.21,1.61-5.49.2-5.76-1.07-10.42-1.26-13.63-1.22-7.48.08-10.37.41-10.37.41-5.16.58-7.87,1.46-9.15,0-1.07-1.21-.59-3.39,0-5.08Z"/>
    <path class="cls-5" d="m1055.74,99.49c.77,1.73,2.22,4.22,4.88,5.49,4.36,2.08,8.15-.95,14.03-.61,2.9.17,7.15,1.2,12.2,5.54h49.95s14.64-9.42,14.64-14.17,12.71-21.37,24.05-20.68c11.34.68,0-8.27,0-8.27-39.92,10.9-79.85,21.8-119.77,32.7Z"/>
    <path class="cls-7" d="m69.87,67.12s27.66-3.27,31.53-.82-6.71-2.23-31.53.82Z"/>
    <path class="cls-4" d="m1059.4,97.66c12.81-4.88,25.63-9.76,38.44-14.64,8.78,1.04,15.49.13,19.73-.77,21.35-4.52,27.71-15.33,44.95-15.04,12.55.21,22.54,6.52,22.21,8-.33,1.49-10.99-2.17-25.19,1.37-8,1.99-9.86,4.6-20.81,9.49-5.81,2.59-14.41,5.93-25.64,8.5-5.74,2.4-19.72,7.98-32.94,10.42-3.39.62-7.6,1.2-12.2-.61-4.35-1.71-7.1-4.78-8.54-6.71Z"/>
    <path class="cls-5" d="m1072.21,115.35c-.08.35-1.09,4.92,1.83,7.93,2.83,2.92,8.18,3.2,12.2,0,21.76-.41,43.53-.81,65.29-1.22,3.47-5.49,6.7-9.84,9.15-12.95,9.82-12.44,15.95-20.21,24.05-20.68,1.73-.1,4.29.08,4.9-1.21,1.1-2.32-4.9-7.06-4.9-7.06-37.51,11.73-75.02,23.46-112.53,35.19Z"/>
    <path class="cls-3" d="m1098.33,82.77s6.1,8.46,16.72,7.61c10.62-.85,6.04,5.65,6.04,5.65-.42.71-1,1.61-1.78,2.54,0,0-1.36,1.63-2.96,2.8-2.92,2.15-9.1-.82-14.85-1.28-7.52-.61-7.47,3.63-19.77,5.2-7.58.97-11.61-.13-13.79-.93-3.95-1.45-9-4.55-8.54-6.71.2-.95,1.42-1.51,2.44-1.83,6.66-1.55,14.07-3.7,21.97-6.71,5.29-2.02,10.13-4.18,14.52-6.34Z"/>
    <path class="cls-4" d="m1181.43,88.43c3.23-1.67,6.81-4.01,6.56-6.35-.45-4.13-12.34-8.02-23.03-6.4-10.3,1.57-13.53,7.34-23.8,12.81-6.85,3.65-17.6,7.58-33.65,7.19-11.77,6.55-23.53,13.11-35.3,19.66,1.78,2.15,3.55,4.3,5.33,6.45,11.14-.45,20.87-1.02,28.84-1.57,17.78-1.21,14.17-1.43,19.51-1.52,13.08-.22,17.26,1.36,21.98-2.15,4.39-3.25,8.5-10.32,8.54-10.37,1.91-2.77,4.85-6.37,9.15-9.76,6.04-4.76,12.05-6.95,15.86-8Z"/>
    <path class="cls-3" d="m1124.69,93.39s7.85,10.54,21.51,9.48c13.67-1.06,7.77,7.04,7.77,7.04-1.08,1.78-2.99,4.44-6.1,6.66-5.37,3.83-10.62,3.7-28.07,4.27-9.09.3-13.64.45-16.47.61-10.47.59-15.37,1.27-23.19.35-.07,0-.23-.02-.44-.05-.18-.03-3.37-.6-4.44-3.35-.63-1.62-.19-3.12,0-3.66,4.65-3.98,11.05-8.64,19.3-12.66,11.82-5.76,22.67-7.87,30.13-8.69Z"/>
    <path class="cls-5" d="m1169.51,98.67c.63-1.43,2.26-4.61,5.82-7.12,3.91-2.76,7.86-3.08,9.41-3.12-3.68,1.84-6.07,4.1-7.43,5.6-2.68,2.95-5.49,6.04-5.27,9.91.13,2.3,1.29,4.14.24,5.31-.58.65-1.72.95-2.44.61-.93-.44-2.03-2.35-.33-11.19Z"/>
  </g>
  <g id="skor_1" data-name="skor 1">
    <path class="cls-1" d="m222.66,16.1c5.63,6.85,7.27,12.82,7.78,16.68.11.84.17,1.55.2,2.03,0,0,.4,5.19-1.42,16.77h0c-.05,1.43.99,2.35,1.73,2.28.68-.07,1.44-1.02,1.32-2.28.72-5.25,1.44-10.5,2.16-15.75-3.87-9.12-7.75-18.24-11.62-27.37l-.15,7.64Z"/>
    <path class="cls-2" d="m211.81,4.59c-4.64-1.64-11.01-3.11-14.73,0-4.31,3.6-3.19,11.12-2.71,18.31.62,9.15.42,22.2-3.39,38.75-.48,1.22-3.94,10.57,1.22,18.31,2.95,4.42,7.23,6.1,10.37,7.32,3.53,1.38,12.3,3.97,21.05-.31,3.51-1.71,5.89-3.98,7.29-5.53.22-3.19.18-7.51-.88-12.47-1.33-6.27-3.75-11.05-5.63-14.14l-7.89-2.8c-.12-12.76-.24-25.52-.37-38.28.17-.52.84-2.85-.35-5.39-1.21-2.59-3.49-3.56-3.99-3.76Z"/>
    <path class="cls-2" d="m222.72,11.83s-.74-6.28,3.19-9.45c4.29-3.46,10.74-1.19,12.37-.61,10.04,3.62,14.59,14.92,19.58,27.29,2.92,7.25,4.76,13.82,5.95,19.18,3.34,6.77,6.67,13.54,10.01,20.3.31.54,2.88,5.17.77,9.19-1.51,2.88-4.58,3.8-7.53,4.68-4.14,1.23-7.78.9-9.96.51-.76.24-6.03,1.85-11.19-1.33-4.83-2.97-5.93-7.91-6.1-8.75-.2-4.88-.41-9.76-.61-14.64.28-12.85-2.44-20.63-5.08-25.42-1.03-1.86-3.95-6.73-8.14-14.64-1.4-2.65-2.52-4.85-3.25-6.31Z"/>
    <path class="cls-1" d="m235.24,47.89c7.32.93,13.3.76,17.55.4,9.1-.77,19.93-3.25,19.93-3.25,0,0,6.21,5.58,7.32,12.2.92,5.48-1.63,11.8-1.63,11.8-9.53-1.26-17.28-.96-22.78-.41-11.95,1.21-19.13,4.26-22.7.38-2.46-2.67-1.97-7.29-1.63-10.53.53-5.05,2.66-8.72,3.93-10.59Z"/>
    <path class="cls-1" d="m189.43,51.98c7.32.93,13.3.76,17.55.4,9.1-.77,19.93-3.25,19.93-3.25h0s6.21,5.58,7.32,12.2c.92,5.48-1.63,11.8-1.63,11.8h0c-9.53-1.26-17.28-.96-22.78-.41-11.95,1.21-19.13,4.26-22.7.38-2.46-2.67-1.97-7.29-1.63-10.53.53-5.05,2.66-8.72,3.93-10.59Z"/>
  </g>
</svg>