<?xml version="1.0" encoding="UTF-8"?>
<svg id="Lag_2" data-name="Lag 2" xmlns="http://www.w3.org/2000/svg" viewBox="0 0 1215.9 850.02">
  <defs>
    <style>
      .cls-1, .cls-2, .cls-3 {
        stroke-width: 0px;
      }

      .cls-2 {
        fill: #554e50;
      }

      .cls-3 {
        fill: #fff;
      }
    </style>
  </defs>
  <g id="Lag_16" data-name="Lag 16">
    <polygon class="cls-1" points="1048.57 120.13 1036.23 485.5 1049.67 479.16 1048.57 120.13"/>
    <path class="cls-1" d="m1027,477.28c15.11-5.64,27.25-4.05,30.21,1.67,1.8,3.46.07,8.06-1.69,10.42-4.53,6.08-15.54,7.6-26.54,1.83-4.2-2.2-4.75-4.94-4.88-5.49-1.02-4.18,2.41-7.91,2.9-8.42Z"/>
    <path class="cls-1" d="m857.24,632.82c116.81-102.78,175.9-153.42,177.24-151.93,1.34,1.48-54.54,54.63-167.62,159.44h-15.54l5.92-7.5Z"/>
    <path class="cls-1" d="m1038.22,492.19c.25-7.09.66-10.65,1.21-10.67,2.6-.11,8.51,77.73,17.74,233.5-4.5.42-9.01.85-13.51,1.27-1.81-74.7-3.63-149.4-5.44-224.09Z"/>
    <path class="cls-1" d="m1045.43,474.42c1.22-1.07,58.04,60.92,170.47,185.98-4.6-.37-9.2-.73-13.81-1.1-105.63-122.2-157.86-183.83-156.66-184.89Z"/>
    <polygon class="cls-1" points="249.15 25.6 233.56 530.87 250.54 522.09 249.15 25.6"/>
    <path class="cls-1" d="m221.91,519.5c19.08-7.79,34.42-5.6,38.16,2.3,2.27,4.79.09,11.14-2.13,14.4-5.72,8.41-19.63,10.51-33.53,2.53-5.31-3.05-6-6.83-6.17-7.59-1.29-5.78,3.05-10.94,3.66-11.64Z"/>
    <path class="cls-1" d="m7.47,734.58c147.55-142.13,222.18-212.17,223.88-210.11,1.69,2.05-68.89,75.55-211.73,220.48H0l7.47-10.38Z"/>
    <path class="cls-1" d="m236.08,540.12c.32-9.8.83-14.72,1.53-14.76,3.28-.15,10.75,107.49,22.41,322.9-5.69.58-11.37,1.17-17.06,1.75-2.29-103.3-4.58-206.6-6.88-309.9Z"/>
    <path class="cls-1" d="m245.19,515.54c1.54-1.48,73.31,84.24,215.33,257.2-5.81-.51-11.63-1.01-17.44-1.52-133.42-168.99-199.39-254.22-197.89-255.68Z"/>
    <g id="stång">
      <path class="cls-1" d="m183.51,0c98.52,16.4,179.1,30.5,235.77,40.58,67.01,11.92,133.57,24.09,227.31,38.14,82.1,12.3,118.87,16.12,150.19,18.61,34.13,2.71,46.11,2.61,105.87,7.32,29.57,2.33,44,3.73,67.65,4.27,14.15.32,25.77.21,48.03,1.22,21.13.96,20.24,1.5,27.74,1.22,11.72-.44,23.45.37,35.18.31,2.86-.02,8.77-.06,10.82,3.05,1.01,1.53,1.15,3.91-.11,5.39-1.29,1.52-3.65,1.65-5.3,1.72-5.41.23-11,.43-16.93.57-27.56-.87-55.41-2-83.54-3.4-129.16-6.45-252.43-18.14-369.38-33.61,0,0-242.19-36.56-242.19-36.56-64.72-11.49-129.44-22.98-194.16-34.47-.54-.29-2.81-1.58-3.72-4.27-.86-2.54.07-4.64.34-5.19.06-.37.45-2.61,2.71-3.97,1.55-.93,3.13-.94,3.72-.92Z"/>
    </g>
  </g>
  <g id="galge_svart" data-name="galge svart">
    <path class="cls-1" d="m588.37,67.33c.26-.61-1.52-2.48-3.31-2.37-1.55.1-2.56,1.64-3.01,2.37,0,0-1.78,2.82-.81,13.22h0s-.93,3.21-1.53,5.29c-.46,1.59-1.11,3.81-1.9,6.52-.79,1.76-1.58,3.52-2.37,5.27-13.15-2.14-26.31-4.27-39.46-6.41-.02.86-.04,1.72-.07,2.58,13.41,2.02,26.82,4.04,40.24,6.06,12.2,1.83,24.41,3.66,36.61,5.49.07-.68.14-1.36.2-2.03-11.63-1.76-23.25-3.53-34.88-5.29,1.91-5.8,3.82-11.6,5.74-17.39-.96-9.48.25-12.39,1.79-13.01,1.1-.44,2.55.2,2.76-.3Z"/>
    <path class="cls-1" d="m548.08,92.55c.31-2.71.61-5.42.92-8.14-2.04-.01-4.08-.02-6.13-.04-.26,2.59-.53,5.18-.79,7.77-.81,2-1.63,4-2.44,6,3.83.81,7.66,1.63,11.49,2.44.85-2.1,1.69-4.2,2.54-6.31,1.29-1.42,2.58-2.85,3.86-4.27l-4.68-3.25c-1.59,1.93-3.19,3.86-4.78,5.8Z"/>
    <path class="cls-1" d="m603.89,101.22c.66-2.3,1.33-4.61,1.99-6.91,1.7.7,3.41,1.4,5.11,2.1-.66,2.19-1.31,4.38-1.97,6.56,0,1.9,0,3.81,0,5.71-3.46-.67-6.92-1.35-10.39-2.02,0-2,.01-3.99.02-5.99-.59-1.6-1.18-3.2-1.77-4.8l4.99-1.01c.67,2.12,1.34,4.24,2.01,6.36Z"/>
    <path class="cls-1" d="m844.59,100.47c.04-.66-2.25-1.84-3.91-1.14-1.43.61-1.87,2.4-2.06,3.23,0,0-.75,3.25,3.61,12.75h0s.19,3.34.31,5.5c.09,1.65.22,3.96.36,6.78-.16,1.92-.33,3.84-.49,5.76-13.12,2.34-26.24,4.67-39.36,7.01.26.82.53,1.64.79,2.46,13.33-2.53,26.65-5.06,39.98-7.59,12.12-2.31,24.24-4.62,36.37-6.93-.16-.66-.32-1.32-.48-1.99-11.56,2.18-23.11,4.37-34.67,6.55-.11-6.1-.23-12.21-.34-18.31-4.05-8.63-3.86-11.78-2.62-12.87.89-.78,2.47-.66,2.51-1.2Z"/>
    <path class="cls-1" d="m814.91,137.6c-.61-2.66-1.22-5.32-1.83-7.98-1.93.66-3.86,1.33-5.79,1.99.61,2.53,1.22,5.06,1.82,7.59-.11,2.16-.21,4.31-.32,6.47,3.88-.5,7.77-1,11.65-1.5.1-2.26.21-4.53.31-6.79.74-1.77,1.49-3.54,2.23-5.31l-5.49-1.52c-.86,2.35-1.73,4.7-2.59,7.05Z"/>
    <path class="cls-1" d="m870.44,127.32c-.13-2.39-.27-4.79-.4-7.18,1.84.1,3.68.19,5.52.29.1,2.28.21,4.56.31,6.85.63,1.8,1.26,3.59,1.89,5.39-3.49.51-6.98,1.02-10.47,1.53-.65-1.89-1.31-3.77-1.96-5.66-1.09-1.32-2.17-2.63-3.26-3.95l4.38-2.6c1.33,1.78,2.67,3.56,4,5.33Z"/>
    <path class="cls-1" d="m1002.13,109.21c.04-.66-2.25-1.84-3.91-1.14-1.43.61-1.87,2.4-2.06,3.23,0,0-.75,3.25,3.61,12.75h0s.19,3.34.31,5.5c.09,1.65.22,3.96.36,6.78-.16,1.92-.33,3.84-.49,5.76-13.12,2.34-26.24,4.67-39.36,7.01.26.82.53,1.64.79,2.46,13.33-2.53,26.65-5.06,39.98-7.59,12.12-2.31,24.24-4.62,36.37-6.93-.16-.66-.32-1.32-.48-1.99-11.56,2.18-23.11,4.37-34.67,6.55-.11-6.1-.23-12.21-.34-18.31-4.05-8.63-3.86-11.78-2.62-12.87.89-.78,2.47-.66,2.51-1.2Z"/>
    <path class="cls-1" d="m972.45,146.33c-.61-2.66-1.22-5.32-1.83-7.98-1.93.66-3.86,1.33-5.79,1.99.61,2.53,1.22,5.06,1.82,7.59-.11,2.16-.21,4.31-.32,6.47,3.88-.5,7.77-1,11.65-1.5.1-2.26.21-4.53.31-6.79.74-1.77,1.49-3.54,2.23-5.31-1.83-.51-3.66-1.02-5.49-1.52-.86,2.35-1.73,4.7-2.59,7.05Z"/>
    <path class="cls-1" d="m1027.98,136.06c-.13-2.39-.27-4.79-.4-7.18,1.84.1,3.68.19,5.52.29.1,2.28.21,4.56.31,6.85.63,1.8,1.26,3.59,1.89,5.39-3.49.51-6.98,1.02-10.47,1.53-.65-1.89-1.31-3.77-1.96-5.66-1.09-1.32-2.17-2.63-3.26-3.95l4.38-2.6c1.33,1.78,2.67,3.56,4,5.33Z"/>
    <path class="cls-1" d="m989.08,109.8c.24-.62-1.6-2.43-3.4-2.25-1.55.16-2.49,1.74-2.92,2.47,0,0-1.68,2.88-.33,13.24h0s-.81,3.25-1.33,5.34c-.4,1.6-.97,3.85-1.66,6.59-.73,1.79-1.45,3.57-2.18,5.36-13.22-1.66-26.44-3.31-39.66-4.97,0,.86.02,1.72.03,2.58,13.48,1.53,26.95,3.07,40.43,4.6,12.26,1.39,24.52,2.77,36.79,4.16.04-.68.09-1.36.13-2.04-11.68-1.34-23.37-2.68-35.05-4.02,1.7-5.86,3.4-11.73,5.1-17.59-1.31-9.44-.2-12.39,1.32-13.07,1.08-.48,2.56.11,2.75-.4Z"/>
    <path class="cls-1" d="m949.73,136.46c.21-2.72.41-5.44.62-8.16-2.04.06-4.08.12-6.12.19-.17,2.6-.34,5.19-.51,7.79-.74,2.03-1.48,4.06-2.22,6.08,3.86.67,7.71,1.35,11.57,2.02.77-2.13,1.54-4.26,2.31-6.39,1.24-1.47,2.47-2.94,3.71-4.41-1.6-1.03-3.2-2.05-4.79-3.08-1.52,1.99-3.04,3.98-4.57,5.97Z"/>
    <path class="cls-1" d="m1005.82,143.1c.58-2.33,1.16-4.65,1.74-6.98,1.73.64,3.45,1.28,5.18,1.91-.58,2.21-1.15,4.42-1.73,6.63.07,1.9.14,3.8.21,5.7-3.48-.55-6.97-1.09-10.45-1.64-.07-2-.13-3.99-.2-5.99-.65-1.58-1.29-3.16-1.94-4.74l4.95-1.19c.75,2.09,1.5,4.19,2.24,6.28Z"/>
    <path class="cls-1" d="m485.21,46.7c.14-.67,2.89-.91,4.45.44,1.35,1.16,1.32,3.09,1.29,3.98,0,0-.1,3.48-7.33,11.04h0s-1.12,3.19-1.84,5.26c-.55,1.58-1.32,3.79-2.25,6.5-.36,1.95-.71,3.89-1.07,5.84,13.24,7.5,26.48,14.99,39.73,22.49-.5.7-1.01,1.39-1.51,2.09-13.41-7.77-26.82-15.54-40.22-23.31-12.19-7.08-24.39-14.15-36.58-21.23.35-.58.7-1.17,1.06-1.75,11.63,6.73,23.26,13.45,34.89,20.18,1.8-5.93,3.6-11.86,5.4-17.79,6.66-6.84,7.33-10,6.31-11.56-.73-1.12-2.44-1.62-2.32-2.17Z"/>
    <path class="cls-1" d="m506.4,94.83c1.38-2.36,2.75-4.72,4.13-7.09,1.86,1.42,3.72,2.83,5.58,4.25-1.34,2.24-2.68,4.47-4.02,6.71-.48,2.15-.96,4.31-1.44,6.46-3.97-2.03-7.95-4.06-11.92-6.1.51-2.26,1.03-4.52,1.54-6.77-.3-2.03-.6-4.06-.9-6.08l6.23.69c.27,2.64.54,5.29.8,7.93Z"/>
    <path class="cls-1" d="m450.46,62.71c.8-2.29,1.6-4.58,2.4-6.87-1.97-.64-3.95-1.27-5.92-1.91-.74,2.19-1.48,4.39-2.21,6.58-1.16,1.51-2.32,3.02-3.48,4.52,3.55,1.89,7.11,3.77,10.66,5.66,1.21-1.59,2.42-3.17,3.64-4.76,1.51-.86,3.02-1.71,4.54-2.57l-3.92-4.29c-1.9,1.21-3.8,2.42-5.71,3.63Z"/>
  </g>
  <g id="hel_galge" data-name="hel galge">
    <path class="cls-2" d="m813.31,121.01h-4.27c-2.84,1.31-6.29,3.16-9.69,5.72-2.54,1.91-4.46,3.77-5.91,5.39.89.23,1.98.57,3.12,1.1.72.33,1.32.67,1.81.99.71-.26,1.42-.51,2.14-.77,1.2-.54,4.9-2.06,10.02-1.87,4.06.15,6.96,1.3,8.21,1.87l3.78,4.51c3.1,1.64,7.79,4.19,13.31,7.48,15.18,9.05,18.35,12.78,19.38,14.08,1.83,2.29,4.31,6.12,5.26,11.55v1.32h4.11c1.56-8.61-1.66-13.76-4.27-16.61-1.3-1.42-6.62-4.65-17.25-11.11-6.09-3.7-14.35-8.61-14.29-8.58h0c-1.16-2.22-3.06-5.15-6.24-8.25-3.16-3.08-6.54-5.31-9.2-6.82Z"/>
    <path class="cls-2" d="m793.43,132.12c-10.46,6.99-20.92,13.98-31.38,20.97-.71.62-1.65,1.51-2.63,2.64-1.88,2.16-3.01,4.21-3.45,5.26-2.08,4.99,1.75,10.83,2.46,11.88,1.51-.18,3.01-.37,4.52-.55-1.06-1.62-3.37-5.79-1.56-10.78.79-2.17,2.13-3.87,3.29-5.06,11.22-7.43,22.45-14.85,33.67-22.28.6-.98,0-2.08-1.31-2.55-1.17-.42-2.68-.23-3.61.46Z"/>
    <path class="cls-3" d="m809.53,97.24c-1.66.86-2.29,2-2.85,3.03-1.82,3.32-.49,6.64.98,8.47.89,1.11,1.46,1.81,2.69,2.36.86.39,1.6.5,2.07,1.04.54.62.33,1.39.07,1.93v6.95h-3.94c.35-1.66.69-3.31,1.04-4.97-.21-.96-.41-1.92-.62-2.88-1.01-.61-2.41-1.61-3.54-3.05-1.96-2.5-1.88-4.8-1.81-7.15.1-2.91,1.05-4.22,1.43-4.71.16-.19.81-.99,2.03-1.83,1.23-.85,2.62-1.81,4.58-1.86,1.83-.05,3.73.69,3.65,1.16-.1.58-3.19.19-5.77,1.53Z"/>
    <path class="cls-2" d="m861.43,127.9h3.51c2.33,1.35,5.17,3.26,7.96,5.9,2.08,1.97,3.66,3.89,4.85,5.56-.73.23-1.63.59-2.56,1.14-.59.34-1.08.7-1.48,1.02-.58-.26-1.17-.53-1.75-.79-.99-.56-4.02-2.13-8.23-1.93-3.33.16-5.71,1.34-6.74,1.93-1.03,1.55-2.07,3.1-3.1,4.65-2.55,1.69-6.39,4.33-10.92,7.72-12.47,9.34-15.07,13.2-15.91,14.53-1.5,2.37-3.54,6.31-4.32,11.92v1.36h-3.37c-1.28-8.89,1.37-14.21,3.51-17.14,1.07-1.47,5.43-4.8,14.16-11.47,5-3.82,11.78-8.89,11.73-8.85h0c.95-2.29,2.51-5.31,5.12-8.51,2.59-3.18,5.37-5.48,7.55-7.04Z"/>
    <path class="cls-2" d="m877.75,139.36c8.59,7.22,17.17,14.43,25.76,21.65.58.64,1.36,1.56,2.16,2.72,1.54,2.23,2.47,4.34,2.83,5.43,1.71,5.15-1.44,11.18-2.02,12.26-1.24-.19-2.47-.38-3.71-.57.87-1.68,2.76-5.98,1.28-11.13-.65-2.24-1.75-4-2.7-5.22-9.22-7.66-18.43-15.33-27.65-22.99-.49-1.01,0-2.15,1.08-2.63.96-.43,2.2-.24,2.97.47Z"/>
    <path class="cls-3" d="m864.53,103.36c1.36.89,1.88,2.06,2.34,3.12,1.5,3.43.4,6.86-.81,8.74-.73,1.15-1.19,1.86-2.21,2.44-.71.4-1.32.52-1.7,1.07-.45.64-.27,1.43-.06,2v7.17h3.24c-.28-1.71-.57-3.42-.85-5.13.17-.99.34-1.98.51-2.98.83-.63,1.98-1.66,2.91-3.15,1.61-2.58,1.55-4.96,1.48-7.38-.08-3-.86-4.36-1.18-4.86-.13-.2-.66-1.02-1.66-1.89-1.01-.88-2.15-1.87-3.76-1.92-1.5-.05-3.06.72-3,1.19.08.6,2.62.2,4.74,1.58Z"/>
    <path class="cls-2" d="m1029.75,135.15h3.51c2.33,1.35,5.17,3.26,7.96,5.9,2.08,1.97,3.66,3.89,4.85,5.56-.73.23-1.63.59-2.56,1.14-.59.34-1.08.7-1.48,1.02-.58-.26-1.17-.53-1.75-.79-.99-.56-4.02-2.13-8.23-1.93-3.33.16-5.71,1.34-6.74,1.93-1.03,1.55-2.07,3.1-3.1,4.65-2.55,1.69-6.39,4.33-10.92,7.72-12.47,9.34-15.07,13.2-15.91,14.53-1.5,2.37-3.54,6.31-4.32,11.92v1.36h-3.37c-1.28-8.89,1.37-14.21,3.51-17.14,1.07-1.47,5.43-4.8,14.16-11.47,5-3.82,11.78-8.89,11.73-8.85h0c.95-2.29,2.51-5.31,5.12-8.51,2.59-3.18,5.37-5.48,7.55-7.04Z"/>
    <path class="cls-2" d="m1046.07,146.62c8.59,7.22,17.17,14.43,25.76,21.65.58.64,1.36,1.56,2.16,2.72,1.54,2.23,2.47,4.34,2.83,5.43,1.71,5.15-1.44,11.18-2.02,12.26-1.24-.19-2.47-.38-3.71-.57.87-1.68,2.76-5.98,1.28-11.13-.65-2.24-1.75-4-2.7-5.22-9.22-7.66-18.43-15.33-27.65-22.99-.49-1.01,0-2.15,1.08-2.63.96-.43,2.2-.24,2.97.47Z"/>
    <path class="cls-3" d="m1032.85,110.61c1.36.89,1.88,2.06,2.34,3.12,1.5,3.43.4,6.86-.81,8.74-.73,1.15-1.19,1.86-2.21,2.44-.71.4-1.32.52-1.7,1.07-.45.64-.27,1.43-.06,2v7.17h3.24c-.28-1.71-.57-3.42-.85-5.13.17-.99.34-1.98.51-2.98.83-.63,1.98-1.66,2.91-3.15,1.61-2.58,1.55-4.96,1.48-7.38-.08-3-.86-4.36-1.18-4.86-.13-.2-.66-1.02-1.66-1.89-1.01-.88-2.15-1.87-3.76-1.92-1.5-.05-3.06.72-3,1.19.08.6,2.62.2,4.74,1.58Z"/>
    <path class="cls-1" d="m1009.01,132.46h3.41c2.27,1.22,5.03,2.95,7.75,5.34,2.03,1.78,3.57,3.52,4.73,5.03-.71.21-1.58.53-2.5,1.03-.57.31-1.05.63-1.44.92-.57-.24-1.14-.48-1.71-.72-.96-.51-3.92-1.92-8.01-1.75-3.25.14-5.56,1.21-6.57,1.75l-3.02,4.21c-2.48,1.53-6.23,3.91-10.64,6.99-12.14,8.45-14.67,11.94-15.5,13.15-1.46,2.14-3.45,5.71-4.2,10.79v1.23h-3.28c-1.25-8.04,1.33-12.86,3.41-15.51,1.04-1.33,5.29-4.34,13.79-10.38,4.87-3.46,11.47-8.05,11.43-8.01h0c.92-2.07,2.45-4.81,4.99-7.7,2.53-2.88,5.23-4.96,7.35-6.37Z"/>
    <path class="cls-1" d="m1024.9,142.83c8.36,6.53,16.72,13.06,25.08,19.59.57.58,1.32,1.41,2.1,2.47,1.5,2.02,2.41,3.93,2.76,4.92,1.66,4.66-1.4,10.12-1.97,11.1-1.2-.17-2.41-.34-3.61-.51.84-1.52,2.69-5.41,1.25-10.07-.63-2.03-1.7-3.62-2.63-4.73-8.97-6.94-17.95-13.87-26.92-20.81-.48-.91,0-1.95,1.05-2.38.93-.39,2.14-.22,2.89.43Z"/>
    <path class="cls-1" d="m1012.03,110.25c1.33.8,1.83,1.86,2.28,2.83,1.46,3.1.39,6.2-.79,7.91-.71,1.04-1.16,1.69-2.15,2.2-.69.36-1.28.47-1.65.97-.43.58-.27,1.3-.06,1.81v6.49h3.15c-.28-1.55-.55-3.09-.83-4.64.17-.9.33-1.8.5-2.69.8-.57,1.93-1.51,2.83-2.85,1.57-2.34,1.51-4.49,1.44-6.68-.08-2.72-.84-3.95-1.15-4.4-.12-.18-.65-.93-1.62-1.71-.99-.8-2.09-1.69-3.66-1.74-1.47-.05-2.98.65-2.92,1.08.08.54,2.55.18,4.62,1.43Z"/>
  </g>
</svg>